<?xml version="1.0" encoding="UTF-8" standalone="no"?>
<!DOCTYPE svg PUBLIC "-//W3C//DTD SVG 1.1//EN"
 "http://www.w3.org/Graphics/SVG/1.1/DTD/svg11.dtd">
<!-- Generated by graphviz version 2.40.1 (20161225.0304)
 -->
<!-- Title: dependencies Pages: 1 -->
<svg width="2534pt" height="284pt"
 viewBox="0.00 0.00 2534.00 284.00" xmlns="http://www.w3.org/2000/svg" xmlns:xlink="http://www.w3.org/1999/xlink">
<g id="graph0" class="graph" transform="scale(1 1) rotate(0) translate(4 280)">
<title>dependencies</title>
<polygon fill="#ffffff" stroke="transparent" points="-4,4 -4,-280 2530,-280 2530,4 -4,4"/>
<text text-anchor="start" x="1242.0091" y="-42.4" font-family="sans-serif" font-weight="bold" font-size="14.00" fill="#000000">Legend</text>
<polygon fill="#ffffb3" stroke="transparent" points="1029,-10 1029,-30 1049,-30 1049,-10 1029,-10"/>
<text text-anchor="start" x="1052.629" y="-15.4" font-family="sans-serif" font-size="14.00" fill="#000000"> &#160;Declarations</text>
<polygon fill="#8dd3c7" stroke="transparent" points="1142,-10 1142,-30 1162,-30 1162,-10 1142,-10"/>
<text text-anchor="start" x="1165.7251" y="-15.4" font-family="sans-serif" font-size="14.00" fill="#000000"> &#160;Module</text>
<polygon fill="#80b1d3" stroke="transparent" points="1228,-10 1228,-30 1248,-30 1248,-10 1228,-10"/>
<text text-anchor="start" x="1251.7812" y="-15.4" font-family="sans-serif" font-size="14.00" fill="#000000"> &#160;Bootstrap</text>
<polygon fill="#fdb462" stroke="transparent" points="1325,-10 1325,-30 1345,-30 1345,-10 1325,-10"/>
<text text-anchor="start" x="1348.6732" y="-15.4" font-family="sans-serif" font-size="14.00" fill="#000000"> &#160;Providers</text>
<polygon fill="#fb8072" stroke="transparent" points="1421,-10 1421,-30 1441,-30 1441,-10 1421,-10"/>
<text text-anchor="start" x="1444.7258" y="-15.4" font-family="sans-serif" font-size="14.00" fill="#000000"> &#160;Exports</text>
<g id="clust1" class="cluster">
<title>cluster_AppModule</title>
<polygon fill="none" stroke="#000000" stroke-dasharray="1,5" points="8,-70 8,-268 2518,-268 2518,-70 8,-70"/>
</g>
<g id="clust2" class="cluster">
<title>cluster_AppModule_declarations</title>
<polygon fill="none" stroke="#000000" points="510,-78 510,-130 2510,-130 2510,-78 510,-78"/>
</g>
<g id="clust20" class="cluster">
<title>cluster_AppModule_bootstrap</title>
<polygon fill="none" stroke="#000000" points="1115,-208 1115,-260 1239,-260 1239,-208 1115,-208"/>
</g>
<g id="clust21" class="cluster">
<title>cluster_AppModule_providers</title>
<polygon fill="none" stroke="#000000" points="16,-78 16,-130 502,-130 502,-78 16,-78"/>
</g>
<!-- AboutComponent -->
<g id="node1" class="node">
<title>AboutComponent</title>
<polygon fill="#ffffb3" stroke="#000000" points="2502.3301,-122 2385.6699,-122 2385.6699,-86 2502.3301,-86 2502.3301,-122"/>
<text text-anchor="middle" x="2444" y="-99.8" font-family="Times,serif" font-size="14.00" fill="#000000">AboutComponent</text>
</g>
<!-- AppModule -->
<g id="node16" class="node">
<title>AppModule</title>
<polygon fill="#8dd3c7" stroke="#000000" points="1218.6571,-187 1215.6571,-191 1194.6571,-191 1191.6571,-187 1135.3429,-187 1135.3429,-151 1218.6571,-151 1218.6571,-187"/>
<text text-anchor="middle" x="1177" y="-164.8" font-family="Times,serif" font-size="14.00" fill="#000000">AppModule</text>
</g>
<!-- AboutComponent&#45;&gt;AppModule -->
<g id="edge1" class="edge">
<title>AboutComponent&#45;&gt;AppModule</title>
<path fill="none" stroke="#000000" d="M2444,-122.3228C2444,-145.6602 2444,-183 2444,-183 2444,-183 1228.7945,-183 1228.7945,-183"/>
<polygon fill="#000000" stroke="#000000" points="1228.7945,-179.5001 1218.7945,-183 1228.7944,-186.5001 1228.7945,-179.5001"/>
</g>
<!-- AppComponent -->
<g id="node2" class="node">
<title>AppComponent</title>
<polygon fill="#ffffb3" stroke="#000000" points="2367.9399,-122 2262.0601,-122 2262.0601,-86 2367.9399,-86 2367.9399,-122"/>
<text text-anchor="middle" x="2315" y="-99.8" font-family="Times,serif" font-size="14.00" fill="#000000">AppComponent</text>
</g>
<!-- AppComponent&#45;&gt;AppModule -->
<g id="edge2" class="edge">
<title>AppComponent&#45;&gt;AppModule</title>
<path fill="none" stroke="#000000" d="M2315,-122.1554C2315,-144.3519 2315,-179 2315,-179 2315,-179 1228.8517,-179 1228.8517,-179"/>
<polygon fill="#000000" stroke="#000000" points="1228.8517,-175.5001 1218.8517,-179 1228.8516,-182.5001 1228.8517,-175.5001"/>
</g>
<!-- ContactComponent -->
<g id="node3" class="node">
<title>ContactComponent</title>
<polygon fill="#ffffb3" stroke="#000000" points="2244.3795,-122 2119.6205,-122 2119.6205,-86 2244.3795,-86 2244.3795,-122"/>
<text text-anchor="middle" x="2182" y="-99.8" font-family="Times,serif" font-size="14.00" fill="#000000">ContactComponent</text>
</g>
<!-- ContactComponent&#45;&gt;AppModule -->
<g id="edge3" class="edge">
<title>ContactComponent&#45;&gt;AppModule</title>
<path fill="none" stroke="#000000" d="M2182,-122.2843C2182,-143.3211 2182,-175 2182,-175 2182,-175 1228.9041,-175 1228.9041,-175"/>
<polygon fill="#000000" stroke="#000000" points="1228.9041,-171.5001 1218.9041,-175 1228.9041,-178.5001 1228.9041,-171.5001"/>
</g>
<!-- ContactFormComponent -->
<g id="node4" class="node">
<title>ContactFormComponent</title>
<polygon fill="#ffffb3" stroke="#000000" points="2101.7133,-122 1946.2867,-122 1946.2867,-86 2101.7133,-86 2101.7133,-122"/>
<text text-anchor="middle" x="2024" y="-99.8" font-family="Times,serif" font-size="14.00" fill="#000000">ContactFormComponent</text>
</g>
<!-- ContactFormComponent&#45;&gt;AppModule -->
<g id="edge4" class="edge">
<title>ContactFormComponent&#45;&gt;AppModule</title>
<path fill="none" stroke="#000000" d="M2024,-122.308C2024,-142.1455 2024,-171 2024,-171 2024,-171 1228.714,-171 1228.714,-171"/>
<polygon fill="#000000" stroke="#000000" points="1228.714,-167.5001 1218.714,-171 1228.7139,-174.5001 1228.714,-167.5001"/>
</g>
<!-- ContactMapComponent -->
<g id="node5" class="node">
<title>ContactMapComponent</title>
<polygon fill="#ffffb3" stroke="#000000" points="1928.0393,-122 1777.9607,-122 1777.9607,-86 1928.0393,-86 1928.0393,-122"/>
<text text-anchor="middle" x="1853" y="-99.8" font-family="Times,serif" font-size="14.00" fill="#000000">ContactMapComponent</text>
</g>
<!-- ContactMapComponent&#45;&gt;AppModule -->
<g id="edge5" class="edge">
<title>ContactMapComponent&#45;&gt;AppModule</title>
<path fill="none" stroke="#000000" d="M1853,-122.2222C1853,-140.8285 1853,-167 1853,-167 1853,-167 1228.7767,-167 1228.7767,-167"/>
<polygon fill="#000000" stroke="#000000" points="1228.7767,-163.5001 1218.7767,-167 1228.7766,-170.5001 1228.7767,-163.5001"/>
</g>
<!-- EducationComponent -->
<g id="node6" class="node">
<title>EducationComponent</title>
<polygon fill="#ffffb3" stroke="#000000" points="1760.0954,-122 1621.9046,-122 1621.9046,-86 1760.0954,-86 1760.0954,-122"/>
<text text-anchor="middle" x="1691" y="-99.8" font-family="Times,serif" font-size="14.00" fill="#000000">EducationComponent</text>
</g>
<!-- EducationComponent&#45;&gt;AppModule -->
<g id="edge6" class="edge">
<title>EducationComponent&#45;&gt;AppModule</title>
<path fill="none" stroke="#000000" d="M1691,-122.0225C1691,-139.3734 1691,-163 1691,-163 1691,-163 1229.0628,-163 1229.0628,-163"/>
<polygon fill="#000000" stroke="#000000" points="1229.0628,-159.5001 1219.0628,-163 1229.0627,-166.5001 1229.0628,-159.5001"/>
</g>
<!-- ExperienceComponent -->
<g id="node7" class="node">
<title>ExperienceComponent</title>
<polygon fill="#ffffb3" stroke="#000000" points="1604.2949,-122 1459.7051,-122 1459.7051,-86 1604.2949,-86 1604.2949,-122"/>
<text text-anchor="middle" x="1532" y="-99.8" font-family="Times,serif" font-size="14.00" fill="#000000">ExperienceComponent</text>
</g>
<!-- ExperienceComponent&#45;&gt;AppModule -->
<g id="edge7" class="edge">
<title>ExperienceComponent&#45;&gt;AppModule</title>
<path fill="none" stroke="#000000" d="M1532,-122.0091C1532,-138.0494 1532,-159 1532,-159 1532,-159 1228.7669,-159 1228.7669,-159"/>
<polygon fill="#000000" stroke="#000000" points="1228.767,-155.5001 1218.7669,-159 1228.7669,-162.5001 1228.767,-155.5001"/>
</g>
<!-- FooterComponent -->
<g id="node8" class="node">
<title>FooterComponent</title>
<polygon fill="#ffffb3" stroke="#000000" points="1441.8809,-122 1324.1191,-122 1324.1191,-86 1441.8809,-86 1441.8809,-122"/>
<text text-anchor="middle" x="1383" y="-99.8" font-family="Times,serif" font-size="14.00" fill="#000000">FooterComponent</text>
</g>
<!-- FooterComponent&#45;&gt;AppModule -->
<g id="edge8" class="edge">
<title>FooterComponent&#45;&gt;AppModule</title>
<path fill="none" stroke="#000000" d="M1383,-122.1243C1383,-136.7832 1383,-155 1383,-155 1383,-155 1228.6872,-155 1228.6872,-155"/>
<polygon fill="#000000" stroke="#000000" points="1228.6872,-151.5001 1218.6872,-155 1228.6871,-158.5001 1228.6872,-151.5001"/>
</g>
<!-- HeaderComponent -->
<g id="node9" class="node">
<title>HeaderComponent</title>
<polygon fill="#ffffb3" stroke="#000000" points="1305.7437,-122 1184.2563,-122 1184.2563,-86 1305.7437,-86 1305.7437,-122"/>
<text text-anchor="middle" x="1245" y="-99.8" font-family="Times,serif" font-size="14.00" fill="#000000">HeaderComponent</text>
</g>
<!-- HeaderComponent&#45;&gt;AppModule -->
<g id="edge9" class="edge">
<title>HeaderComponent&#45;&gt;AppModule</title>
<path fill="none" stroke="#000000" d="M1201.4783,-122.1061C1201.4783,-122.1061 1201.4783,-140.991 1201.4783,-140.991"/>
<polygon fill="#000000" stroke="#000000" points="1197.9783,-140.9909 1201.4783,-150.991 1204.9783,-140.991 1197.9783,-140.9909"/>
</g>
<!-- SkillsComponent -->
<g id="node10" class="node">
<title>SkillsComponent</title>
<polygon fill="#ffffb3" stroke="#000000" points="1166.7316,-122 1053.2684,-122 1053.2684,-86 1166.7316,-86 1166.7316,-122"/>
<text text-anchor="middle" x="1110" y="-99.8" font-family="Times,serif" font-size="14.00" fill="#000000">SkillsComponent</text>
</g>
<!-- SkillsComponent&#45;&gt;AppModule -->
<g id="edge10" class="edge">
<title>SkillsComponent&#45;&gt;AppModule</title>
<path fill="none" stroke="#000000" d="M1150.8938,-122.1061C1150.8938,-122.1061 1150.8938,-140.991 1150.8938,-140.991"/>
<polygon fill="#000000" stroke="#000000" points="1147.3938,-140.9909 1150.8938,-150.991 1154.3938,-140.991 1147.3938,-140.9909"/>
</g>
<!-- BadgeUrlPipe -->
<g id="node11" class="node">
<title>BadgeUrlPipe</title>
<polygon fill="#ffffb3" stroke="#000000" points="1035.8119,-122 940.1881,-122 940.1881,-86 1035.8119,-86 1035.8119,-122"/>
<text text-anchor="middle" x="988" y="-99.8" font-family="Times,serif" font-size="14.00" fill="#000000">BadgeUrlPipe</text>
</g>
<!-- BadgeUrlPipe&#45;&gt;AppModule -->
<g id="edge11" class="edge">
<title>BadgeUrlPipe&#45;&gt;AppModule</title>
<path fill="none" stroke="#000000" d="M988,-122.1243C988,-136.7832 988,-155 988,-155 988,-155 1125.0548,-155 1125.0548,-155"/>
<polygon fill="#000000" stroke="#000000" points="1125.0548,-158.5001 1135.0548,-155 1125.0547,-151.5001 1125.0548,-158.5001"/>
</g>
<!-- MemberDatePipe -->
<g id="node12" class="node">
<title>MemberDatePipe</title>
<polygon fill="#ffffb3" stroke="#000000" points="922.2395,-122 807.7605,-122 807.7605,-86 922.2395,-86 922.2395,-122"/>
<text text-anchor="middle" x="865" y="-99.8" font-family="Times,serif" font-size="14.00" fill="#000000">MemberDatePipe</text>
</g>
<!-- MemberDatePipe&#45;&gt;AppModule -->
<g id="edge12" class="edge">
<title>MemberDatePipe&#45;&gt;AppModule</title>
<path fill="none" stroke="#000000" d="M865,-122.0091C865,-138.0494 865,-159 865,-159 865,-159 1125.246,-159 1125.246,-159"/>
<polygon fill="#000000" stroke="#000000" points="1125.2461,-162.5001 1135.246,-159 1125.246,-155.5001 1125.2461,-162.5001"/>
</g>
<!-- ScorePipe -->
<g id="node13" class="node">
<title>ScorePipe</title>
<polygon fill="#ffffb3" stroke="#000000" points="789.2606,-122 716.7394,-122 716.7394,-86 789.2606,-86 789.2606,-122"/>
<text text-anchor="middle" x="753" y="-99.8" font-family="Times,serif" font-size="14.00" fill="#000000">ScorePipe</text>
</g>
<!-- ScorePipe&#45;&gt;AppModule -->
<g id="edge13" class="edge">
<title>ScorePipe&#45;&gt;AppModule</title>
<path fill="none" stroke="#000000" d="M753,-122.0225C753,-139.3734 753,-163 753,-163 753,-163 1125.1849,-163 1125.1849,-163"/>
<polygon fill="#000000" stroke="#000000" points="1125.1849,-166.5001 1135.1849,-163 1125.1848,-159.5001 1125.1849,-166.5001"/>
</g>
<!-- TrimPipe -->
<g id="node14" class="node">
<title>TrimPipe</title>
<polygon fill="#ffffb3" stroke="#000000" points="698.3823,-122 629.6177,-122 629.6177,-86 698.3823,-86 698.3823,-122"/>
<text text-anchor="middle" x="664" y="-99.8" font-family="Times,serif" font-size="14.00" fill="#000000">TrimPipe</text>
</g>
<!-- TrimPipe&#45;&gt;AppModule -->
<g id="edge14" class="edge">
<title>TrimPipe&#45;&gt;AppModule</title>
<path fill="none" stroke="#000000" d="M664,-122.2222C664,-140.8285 664,-167 664,-167 664,-167 1125.0191,-167 1125.0191,-167"/>
<polygon fill="#000000" stroke="#000000" points="1125.0191,-170.5001 1135.0191,-167 1125.019,-163.5001 1125.0191,-170.5001"/>
</g>
<!-- VideoUrlPipe -->
<g id="node15" class="node">
<title>VideoUrlPipe</title>
<polygon fill="#ffffb3" stroke="#000000" points="611.7577,-122 518.2423,-122 518.2423,-86 611.7577,-86 611.7577,-122"/>
<text text-anchor="middle" x="565" y="-99.8" font-family="Times,serif" font-size="14.00" fill="#000000">VideoUrlPipe</text>
</g>
<!-- VideoUrlPipe&#45;&gt;AppModule -->
<g id="edge15" class="edge">
<title>VideoUrlPipe&#45;&gt;AppModule</title>
<path fill="none" stroke="#000000" d="M565,-122.308C565,-142.1455 565,-171 565,-171 565,-171 1124.9348,-171 1124.9348,-171"/>
<polygon fill="#000000" stroke="#000000" points="1124.9348,-174.5001 1134.9348,-171 1124.9347,-167.5001 1124.9348,-174.5001"/>
</g>
<!-- AppComponent  -->
<g id="node17" class="node">
<title>AppComponent </title>
<polygon fill="#80b1d3" stroke="#000000" points="1231.439,-252 1122.561,-252 1122.561,-216 1231.439,-216 1231.439,-252"/>
<text text-anchor="middle" x="1177" y="-229.8" font-family="Times,serif" font-size="14.00" fill="#000000">AppComponent </text>
</g>
<!-- AppModule&#45;&gt;AppComponent  -->
<g id="edge16" class="edge">
<title>AppModule&#45;&gt;AppComponent </title>
<path fill="none" stroke="#000000" stroke-dasharray="1,5" d="M1177,-187.1061C1177,-187.1061 1177,-205.991 1177,-205.991"/>
<polygon fill="#000000" stroke="#000000" points="1173.5001,-205.9909 1177,-215.991 1180.5001,-205.991 1173.5001,-205.9909"/>
</g>
<!-- ContactService -->
<g id="node18" class="node">
<title>ContactService</title>
<ellipse fill="#fdb462" stroke="#000000" cx="424" cy="-104" rx="70.0596" ry="18"/>
<text text-anchor="middle" x="424" y="-99.8" font-family="Times,serif" font-size="14.00" fill="#000000">ContactService</text>
</g>
<!-- ContactService&#45;&gt;AppModule -->
<g id="edge17" class="edge">
<title>ContactService&#45;&gt;AppModule</title>
<path fill="none" stroke="#000000" d="M424,-122.2843C424,-143.3211 424,-175 424,-175 424,-175 1125.1728,-175 1125.1728,-175"/>
<polygon fill="#000000" stroke="#000000" points="1125.1728,-178.5001 1135.1728,-175 1125.1728,-171.5001 1125.1728,-178.5001"/>
</g>
<!-- EducationService -->
<g id="node19" class="node">
<title>EducationService</title>
<ellipse fill="#fdb462" stroke="#000000" cx="257" cy="-104" rx="79.2922" ry="18"/>
<text text-anchor="middle" x="257" y="-99.8" font-family="Times,serif" font-size="14.00" fill="#000000">EducationService</text>
</g>
<!-- EducationService&#45;&gt;AppModule -->
<g id="edge18" class="edge">
<title>EducationService&#45;&gt;AppModule</title>
<path fill="none" stroke="#000000" d="M257,-122.1554C257,-144.3519 257,-179 257,-179 257,-179 1125.0789,-179 1125.0789,-179"/>
<polygon fill="#000000" stroke="#000000" points="1125.0789,-182.5001 1135.0789,-179 1125.0788,-175.5001 1125.0789,-182.5001"/>
</g>
<!-- HeaderService -->
<g id="node20" class="node">
<title>HeaderService</title>
<ellipse fill="#fdb462" stroke="#000000" cx="92" cy="-104" rx="67.7336" ry="18"/>
<text text-anchor="middle" x="92" y="-99.8" font-family="Times,serif" font-size="14.00" fill="#000000">HeaderService</text>
</g>
<!-- HeaderService&#45;&gt;AppModule -->
<g id="edge19" class="edge">
<title>HeaderService&#45;&gt;AppModule</title>
<path fill="none" stroke="#000000" d="M92,-122.3228C92,-145.6602 92,-183 92,-183 92,-183 1125.1315,-183 1125.1315,-183"/>
<polygon fill="#000000" stroke="#000000" points="1125.1316,-186.5001 1135.1315,-183 1125.1315,-179.5001 1125.1316,-186.5001"/>
</g>
</g>
</svg>
