<?xml version="1.0" encoding="UTF-8" standalone="no"?>
<!DOCTYPE svg PUBLIC "-//W3C//DTD SVG 1.1//EN"
 "http://www.w3.org/Graphics/SVG/1.1/DTD/svg11.dtd">
<!-- Generated by graphviz version 2.40.1 (20161225.0304)
 -->
<!-- Title: dependencies Pages: 1 -->
<svg width="2664pt" height="284pt"
 viewBox="0.00 0.00 2664.00 284.00" xmlns="http://www.w3.org/2000/svg" xmlns:xlink="http://www.w3.org/1999/xlink">
<g id="graph0" class="graph" transform="scale(1 1) rotate(0) translate(4 280)">
<title>dependencies</title>
<polygon fill="#ffffff" stroke="transparent" points="-4,4 -4,-280 2660,-280 2660,4 -4,4"/>
<text text-anchor="start" x="1307.0091" y="-42.4" font-family="sans-serif" font-weight="bold" font-size="14.00" fill="#000000">Legend</text>
<polygon fill="#ffffb3" stroke="transparent" points="1094,-10 1094,-30 1114,-30 1114,-10 1094,-10"/>
<text text-anchor="start" x="1117.629" y="-15.4" font-family="sans-serif" font-size="14.00" fill="#000000"> &#160;Declarations</text>
<polygon fill="#8dd3c7" stroke="transparent" points="1207,-10 1207,-30 1227,-30 1227,-10 1207,-10"/>
<text text-anchor="start" x="1230.7251" y="-15.4" font-family="sans-serif" font-size="14.00" fill="#000000"> &#160;Module</text>
<polygon fill="#80b1d3" stroke="transparent" points="1293,-10 1293,-30 1313,-30 1313,-10 1293,-10"/>
<text text-anchor="start" x="1316.7812" y="-15.4" font-family="sans-serif" font-size="14.00" fill="#000000"> &#160;Bootstrap</text>
<polygon fill="#fdb462" stroke="transparent" points="1390,-10 1390,-30 1410,-30 1410,-10 1390,-10"/>
<text text-anchor="start" x="1413.6732" y="-15.4" font-family="sans-serif" font-size="14.00" fill="#000000"> &#160;Providers</text>
<polygon fill="#fb8072" stroke="transparent" points="1486,-10 1486,-30 1506,-30 1506,-10 1486,-10"/>
<text text-anchor="start" x="1509.7258" y="-15.4" font-family="sans-serif" font-size="14.00" fill="#000000"> &#160;Exports</text>
<g id="clust1" class="cluster">
<title>cluster_AppModule</title>
<polygon fill="none" stroke="#000000" stroke-dasharray="1,5" points="8,-70 8,-268 2648,-268 2648,-70 8,-70"/>
</g>
<g id="clust2" class="cluster">
<title>cluster_AppModule_declarations</title>
<polygon fill="none" stroke="#000000" points="510,-78 510,-130 2640,-130 2640,-78 510,-78"/>
</g>
<g id="clust21" class="cluster">
<title>cluster_AppModule_bootstrap</title>
<polygon fill="none" stroke="#000000" points="1183,-208 1183,-260 1307,-260 1307,-208 1183,-208"/>
</g>
<g id="clust22" class="cluster">
<title>cluster_AppModule_providers</title>
<polygon fill="none" stroke="#000000" points="16,-78 16,-130 502,-130 502,-78 16,-78"/>
</g>
<!-- AboutComponent -->
<g id="node1" class="node">
<title>AboutComponent</title>
<polygon fill="#ffffb3" stroke="#000000" points="2632.3301,-122 2515.6699,-122 2515.6699,-86 2632.3301,-86 2632.3301,-122"/>
<text text-anchor="middle" x="2574" y="-99.8" font-family="Times,serif" font-size="14.00" fill="#000000">AboutComponent</text>
</g>
<!-- AppModule -->
<g id="node17" class="node">
<title>AppModule</title>
<polygon fill="#8dd3c7" stroke="#000000" points="1286.6571,-187 1283.6571,-191 1262.6571,-191 1259.6571,-187 1203.3429,-187 1203.3429,-151 1286.6571,-151 1286.6571,-187"/>
<text text-anchor="middle" x="1245" y="-164.8" font-family="Times,serif" font-size="14.00" fill="#000000">AppModule</text>
</g>
<!-- AboutComponent&#45;&gt;AppModule -->
<g id="edge1" class="edge">
<title>AboutComponent&#45;&gt;AppModule</title>
<path fill="none" stroke="#000000" d="M2574,-122.1532C2574,-145.7566 2574,-184 2574,-184 2574,-184 1296.9693,-184 1296.9693,-184"/>
<polygon fill="#000000" stroke="#000000" points="1296.9694,-180.5001 1286.9693,-184 1296.9693,-187.5001 1296.9694,-180.5001"/>
</g>
<!-- AppComponent -->
<g id="node2" class="node">
<title>AppComponent</title>
<polygon fill="#ffffb3" stroke="#000000" points="2497.9399,-122 2392.0601,-122 2392.0601,-86 2497.9399,-86 2497.9399,-122"/>
<text text-anchor="middle" x="2445" y="-99.8" font-family="Times,serif" font-size="14.00" fill="#000000">AppComponent</text>
</g>
<!-- AppComponent&#45;&gt;AppModule -->
<g id="edge2" class="edge">
<title>AppComponent&#45;&gt;AppModule</title>
<path fill="none" stroke="#000000" d="M2445,-122.0109C2445,-144.4852 2445,-180 2445,-180 2445,-180 1297.005,-180 1297.005,-180"/>
<polygon fill="#000000" stroke="#000000" points="1297.005,-176.5001 1287.005,-180 1297.005,-183.5001 1297.005,-176.5001"/>
</g>
<!-- ContactComponent -->
<g id="node3" class="node">
<title>ContactComponent</title>
<polygon fill="#ffffb3" stroke="#000000" points="2374.3795,-122 2249.6205,-122 2249.6205,-86 2374.3795,-86 2374.3795,-122"/>
<text text-anchor="middle" x="2312" y="-99.8" font-family="Times,serif" font-size="14.00" fill="#000000">ContactComponent</text>
</g>
<!-- ContactComponent&#45;&gt;AppModule -->
<g id="edge3" class="edge">
<title>ContactComponent&#45;&gt;AppModule</title>
<path fill="none" stroke="#000000" d="M2312,-122.0449C2312,-143.6623 2312,-177 2312,-177 2312,-177 1296.8277,-177 1296.8277,-177"/>
<polygon fill="#000000" stroke="#000000" points="1296.8277,-173.5001 1286.8277,-177 1296.8276,-180.5001 1296.8277,-173.5001"/>
</g>
<!-- ContactFormComponent -->
<g id="node4" class="node">
<title>ContactFormComponent</title>
<polygon fill="#ffffb3" stroke="#000000" points="2231.7133,-122 2076.2867,-122 2076.2867,-86 2231.7133,-86 2231.7133,-122"/>
<text text-anchor="middle" x="2154" y="-99.8" font-family="Times,serif" font-size="14.00" fill="#000000">ContactFormComponent</text>
</g>
<!-- ContactFormComponent&#45;&gt;AppModule -->
<g id="edge4" class="edge">
<title>ContactFormComponent&#45;&gt;AppModule</title>
<path fill="none" stroke="#000000" d="M2154,-122.1289C2154,-142.5724 2154,-173 2154,-173 2154,-173 1296.7194,-173 1296.7194,-173"/>
<polygon fill="#000000" stroke="#000000" points="1296.7194,-169.5001 1286.7194,-173 1296.7194,-176.5001 1296.7194,-169.5001"/>
</g>
<!-- TravelComponent -->
<g id="node5" class="node">
<title>TravelComponent</title>
<polygon fill="#ffffb3" stroke="#000000" points="2057.8655,-122 1940.1345,-122 1940.1345,-86 2057.8655,-86 2057.8655,-122"/>
<text text-anchor="middle" x="1999" y="-99.8" font-family="Times,serif" font-size="14.00" fill="#000000">TravelComponent</text>
</g>
<!-- TravelComponent&#45;&gt;AppModule -->
<g id="edge5" class="edge">
<title>TravelComponent&#45;&gt;AppModule</title>
<path fill="none" stroke="#000000" d="M1999,-122.1061C1999,-141.3391 1999,-169 1999,-169 1999,-169 1296.8828,-169 1296.8828,-169"/>
<polygon fill="#000000" stroke="#000000" points="1296.8828,-165.5001 1286.8828,-169 1296.8827,-172.5001 1296.8828,-165.5001"/>
</g>
<!-- TravelMapComponent -->
<g id="node6" class="node">
<title>TravelMapComponent</title>
<polygon fill="#ffffb3" stroke="#000000" points="1921.5254,-122 1778.4746,-122 1778.4746,-86 1921.5254,-86 1921.5254,-122"/>
<text text-anchor="middle" x="1850" y="-99.8" font-family="Times,serif" font-size="14.00" fill="#000000">TravelMapComponent</text>
</g>
<!-- TravelMapComponent&#45;&gt;AppModule -->
<g id="edge6" class="edge">
<title>TravelMapComponent&#45;&gt;AppModule</title>
<path fill="none" stroke="#000000" d="M1850,-122.2667C1850,-140.5552 1850,-166 1850,-166 1850,-166 1297.0621,-166 1297.0621,-166"/>
<polygon fill="#000000" stroke="#000000" points="1297.0621,-162.5001 1287.0621,-166 1297.0621,-169.5001 1297.0621,-162.5001"/>
</g>
<!-- EducationComponent -->
<g id="node7" class="node">
<title>EducationComponent</title>
<polygon fill="#ffffb3" stroke="#000000" points="1760.0954,-122 1621.9046,-122 1621.9046,-86 1760.0954,-86 1760.0954,-122"/>
<text text-anchor="middle" x="1691" y="-99.8" font-family="Times,serif" font-size="14.00" fill="#000000">EducationComponent</text>
</g>
<!-- EducationComponent&#45;&gt;AppModule -->
<g id="edge7" class="edge">
<title>EducationComponent&#45;&gt;AppModule</title>
<path fill="none" stroke="#000000" d="M1691,-122.0336C1691,-139.0597 1691,-162 1691,-162 1691,-162 1296.9586,-162 1296.9586,-162"/>
<polygon fill="#000000" stroke="#000000" points="1296.9586,-158.5001 1286.9586,-162 1296.9586,-165.5001 1296.9586,-158.5001"/>
</g>
<!-- ExperienceComponent -->
<g id="node8" class="node">
<title>ExperienceComponent</title>
<polygon fill="#ffffb3" stroke="#000000" points="1604.2949,-122 1459.7051,-122 1459.7051,-86 1604.2949,-86 1604.2949,-122"/>
<text text-anchor="middle" x="1532" y="-99.8" font-family="Times,serif" font-size="14.00" fill="#000000">ExperienceComponent</text>
</g>
<!-- ExperienceComponent&#45;&gt;AppModule -->
<g id="edge8" class="edge">
<title>ExperienceComponent&#45;&gt;AppModule</title>
<path fill="none" stroke="#000000" d="M1532,-122.0091C1532,-138.0494 1532,-159 1532,-159 1532,-159 1296.7323,-159 1296.7323,-159"/>
<polygon fill="#000000" stroke="#000000" points="1296.7323,-155.5001 1286.7323,-159 1296.7322,-162.5001 1296.7323,-155.5001"/>
</g>
<!-- FooterComponent -->
<g id="node9" class="node">
<title>FooterComponent</title>
<polygon fill="#ffffb3" stroke="#000000" points="1441.8809,-122 1324.1191,-122 1324.1191,-86 1441.8809,-86 1441.8809,-122"/>
<text text-anchor="middle" x="1383" y="-99.8" font-family="Times,serif" font-size="14.00" fill="#000000">FooterComponent</text>
</g>
<!-- FooterComponent&#45;&gt;AppModule -->
<g id="edge9" class="edge">
<title>FooterComponent&#45;&gt;AppModule</title>
<path fill="none" stroke="#000000" d="M1383,-122.1243C1383,-136.7832 1383,-155 1383,-155 1383,-155 1296.779,-155 1296.779,-155"/>
<polygon fill="#000000" stroke="#000000" points="1296.7791,-151.5001 1286.779,-155 1296.779,-158.5001 1296.7791,-151.5001"/>
</g>
<!-- HeaderComponent -->
<g id="node10" class="node">
<title>HeaderComponent</title>
<polygon fill="#ffffb3" stroke="#000000" points="1305.7437,-122 1184.2563,-122 1184.2563,-86 1305.7437,-86 1305.7437,-122"/>
<text text-anchor="middle" x="1245" y="-99.8" font-family="Times,serif" font-size="14.00" fill="#000000">HeaderComponent</text>
</g>
<!-- HeaderComponent&#45;&gt;AppModule -->
<g id="edge10" class="edge">
<title>HeaderComponent&#45;&gt;AppModule</title>
<path fill="none" stroke="#000000" d="M1245,-122.1061C1245,-122.1061 1245,-140.991 1245,-140.991"/>
<polygon fill="#000000" stroke="#000000" points="1241.5001,-140.9909 1245,-150.991 1248.5001,-140.991 1241.5001,-140.9909"/>
</g>
<!-- SkillsComponent -->
<g id="node11" class="node">
<title>SkillsComponent</title>
<polygon fill="#ffffb3" stroke="#000000" points="1166.7316,-122 1053.2684,-122 1053.2684,-86 1166.7316,-86 1166.7316,-122"/>
<text text-anchor="middle" x="1110" y="-99.8" font-family="Times,serif" font-size="14.00" fill="#000000">SkillsComponent</text>
</g>
<!-- SkillsComponent&#45;&gt;AppModule -->
<g id="edge11" class="edge">
<title>SkillsComponent&#45;&gt;AppModule</title>
<path fill="none" stroke="#000000" d="M1110,-122.1243C1110,-136.7832 1110,-155 1110,-155 1110,-155 1193.0252,-155 1193.0252,-155"/>
<polygon fill="#000000" stroke="#000000" points="1193.0252,-158.5001 1203.0252,-155 1193.0251,-151.5001 1193.0252,-158.5001"/>
</g>
<!-- BadgeUrlPipe -->
<g id="node12" class="node">
<title>BadgeUrlPipe</title>
<polygon fill="#ffffb3" stroke="#000000" points="1035.8119,-122 940.1881,-122 940.1881,-86 1035.8119,-86 1035.8119,-122"/>
<text text-anchor="middle" x="988" y="-99.8" font-family="Times,serif" font-size="14.00" fill="#000000">BadgeUrlPipe</text>
</g>
<!-- BadgeUrlPipe&#45;&gt;AppModule -->
<g id="edge12" class="edge">
<title>BadgeUrlPipe&#45;&gt;AppModule</title>
<path fill="none" stroke="#000000" d="M988,-122.0091C988,-138.0494 988,-159 988,-159 988,-159 1193.1365,-159 1193.1365,-159"/>
<polygon fill="#000000" stroke="#000000" points="1193.1366,-162.5001 1203.1365,-159 1193.1365,-155.5001 1193.1366,-162.5001"/>
</g>
<!-- MemberDatePipe -->
<g id="node13" class="node">
<title>MemberDatePipe</title>
<polygon fill="#ffffb3" stroke="#000000" points="922.2395,-122 807.7605,-122 807.7605,-86 922.2395,-86 922.2395,-122"/>
<text text-anchor="middle" x="865" y="-99.8" font-family="Times,serif" font-size="14.00" fill="#000000">MemberDatePipe</text>
</g>
<!-- MemberDatePipe&#45;&gt;AppModule -->
<g id="edge13" class="edge">
<title>MemberDatePipe&#45;&gt;AppModule</title>
<path fill="none" stroke="#000000" d="M865,-122.0336C865,-139.0597 865,-162 865,-162 865,-162 1193.2463,-162 1193.2463,-162"/>
<polygon fill="#000000" stroke="#000000" points="1193.2464,-165.5001 1203.2463,-162 1193.2463,-158.5001 1193.2464,-165.5001"/>
</g>
<!-- ScorePipe -->
<g id="node14" class="node">
<title>ScorePipe</title>
<polygon fill="#ffffb3" stroke="#000000" points="789.2606,-122 716.7394,-122 716.7394,-86 789.2606,-86 789.2606,-122"/>
<text text-anchor="middle" x="753" y="-99.8" font-family="Times,serif" font-size="14.00" fill="#000000">ScorePipe</text>
</g>
<!-- ScorePipe&#45;&gt;AppModule -->
<g id="edge14" class="edge">
<title>ScorePipe&#45;&gt;AppModule</title>
<path fill="none" stroke="#000000" d="M753,-122.2667C753,-140.5552 753,-166 753,-166 753,-166 1193.0524,-166 1193.0524,-166"/>
<polygon fill="#000000" stroke="#000000" points="1193.0524,-169.5001 1203.0524,-166 1193.0523,-162.5001 1193.0524,-169.5001"/>
</g>
<!-- TrimPipe -->
<g id="node15" class="node">
<title>TrimPipe</title>
<polygon fill="#ffffb3" stroke="#000000" points="698.3823,-122 629.6177,-122 629.6177,-86 698.3823,-86 698.3823,-122"/>
<text text-anchor="middle" x="664" y="-99.8" font-family="Times,serif" font-size="14.00" fill="#000000">TrimPipe</text>
</g>
<!-- TrimPipe&#45;&gt;AppModule -->
<g id="edge15" class="edge">
<title>TrimPipe&#45;&gt;AppModule</title>
<path fill="none" stroke="#000000" d="M664,-122.1061C664,-141.3391 664,-169 664,-169 664,-169 1193.2159,-169 1193.2159,-169"/>
<polygon fill="#000000" stroke="#000000" points="1193.2159,-172.5001 1203.2159,-169 1193.2159,-165.5001 1193.2159,-172.5001"/>
</g>
<!-- VideoUrlPipe -->
<g id="node16" class="node">
<title>VideoUrlPipe</title>
<polygon fill="#ffffb3" stroke="#000000" points="611.7577,-122 518.2423,-122 518.2423,-86 611.7577,-86 611.7577,-122"/>
<text text-anchor="middle" x="565" y="-99.8" font-family="Times,serif" font-size="14.00" fill="#000000">VideoUrlPipe</text>
</g>
<!-- VideoUrlPipe&#45;&gt;AppModule -->
<g id="edge16" class="edge">
<title>VideoUrlPipe&#45;&gt;AppModule</title>
<path fill="none" stroke="#000000" d="M565,-122.1289C565,-142.5724 565,-173 565,-173 565,-173 1193.2317,-173 1193.2317,-173"/>
<polygon fill="#000000" stroke="#000000" points="1193.2317,-176.5001 1203.2317,-173 1193.2317,-169.5001 1193.2317,-176.5001"/>
</g>
<!-- AppComponent  -->
<g id="node18" class="node">
<title>AppComponent </title>
<polygon fill="#80b1d3" stroke="#000000" points="1299.439,-252 1190.561,-252 1190.561,-216 1299.439,-216 1299.439,-252"/>
<text text-anchor="middle" x="1245" y="-229.8" font-family="Times,serif" font-size="14.00" fill="#000000">AppComponent </text>
</g>
<!-- AppModule&#45;&gt;AppComponent  -->
<g id="edge17" class="edge">
<title>AppModule&#45;&gt;AppComponent </title>
<path fill="none" stroke="#000000" stroke-dasharray="1,5" d="M1245,-187.1061C1245,-187.1061 1245,-205.991 1245,-205.991"/>
<polygon fill="#000000" stroke="#000000" points="1241.5001,-205.9909 1245,-215.991 1248.5001,-205.991 1241.5001,-205.9909"/>
</g>
<!-- ContactService -->
<g id="node19" class="node">
<title>ContactService</title>
<ellipse fill="#fdb462" stroke="#000000" cx="424" cy="-104" rx="70.0596" ry="18"/>
<text text-anchor="middle" x="424" y="-99.8" font-family="Times,serif" font-size="14.00" fill="#000000">ContactService</text>
</g>
<!-- ContactService&#45;&gt;AppModule -->
<g id="edge18" class="edge">
<title>ContactService&#45;&gt;AppModule</title>
<path fill="none" stroke="#000000" d="M424,-122.0449C424,-143.6623 424,-177 424,-177 424,-177 1193.1578,-177 1193.1578,-177"/>
<polygon fill="#000000" stroke="#000000" points="1193.1578,-180.5001 1203.1578,-177 1193.1577,-173.5001 1193.1578,-180.5001"/>
</g>
<!-- EducationService -->
<g id="node20" class="node">
<title>EducationService</title>
<ellipse fill="#fdb462" stroke="#000000" cx="257" cy="-104" rx="79.2922" ry="18"/>
<text text-anchor="middle" x="257" y="-99.8" font-family="Times,serif" font-size="14.00" fill="#000000">EducationService</text>
</g>
<!-- EducationService&#45;&gt;AppModule -->
<g id="edge19" class="edge">
<title>EducationService&#45;&gt;AppModule</title>
<path fill="none" stroke="#000000" d="M257,-122.0109C257,-144.4852 257,-180 257,-180 257,-180 1193.1779,-180 1193.1779,-180"/>
<polygon fill="#000000" stroke="#000000" points="1193.178,-183.5001 1203.1779,-180 1193.1779,-176.5001 1193.178,-183.5001"/>
</g>
<!-- HeaderService -->
<g id="node21" class="node">
<title>HeaderService</title>
<ellipse fill="#fdb462" stroke="#000000" cx="92" cy="-104" rx="67.7336" ry="18"/>
<text text-anchor="middle" x="92" y="-99.8" font-family="Times,serif" font-size="14.00" fill="#000000">HeaderService</text>
</g>
<!-- HeaderService&#45;&gt;AppModule -->
<g id="edge20" class="edge">
<title>HeaderService&#45;&gt;AppModule</title>
<path fill="none" stroke="#000000" d="M92,-122.1532C92,-145.7566 92,-184 92,-184 92,-184 1193.283,-184 1193.283,-184"/>
<polygon fill="#000000" stroke="#000000" points="1193.283,-187.5001 1203.283,-184 1193.2829,-180.5001 1193.283,-187.5001"/>
</g>
</g>
</svg>
