<?xml version="1.0" encoding="UTF-8" standalone="no"?>
<!DOCTYPE svg PUBLIC "-//W3C//DTD SVG 1.1//EN"
 "http://www.w3.org/Graphics/SVG/1.1/DTD/svg11.dtd">
<!-- Generated by graphviz version 2.40.1 (20161225.0304)
 -->
<!-- Title: dependencies Pages: 1 -->
<svg width="4345pt" height="284pt"
 viewBox="0.00 0.00 4345.00 284.00" xmlns="http://www.w3.org/2000/svg" xmlns:xlink="http://www.w3.org/1999/xlink">
<g id="graph0" class="graph" transform="scale(1 1) rotate(0) translate(4 280)">
<title>dependencies</title>
<polygon fill="#ffffff" stroke="transparent" points="-4,4 -4,-280 4341,-280 4341,4 -4,4"/>
<text text-anchor="start" x="2147.5091" y="-42.4" font-family="sans-serif" font-weight="bold" font-size="14.00" fill="#000000">Legend</text>
<polygon fill="#ffffb3" stroke="transparent" points="1934.5,-10 1934.5,-30 1954.5,-30 1954.5,-10 1934.5,-10"/>
<text text-anchor="start" x="1958.129" y="-15.4" font-family="sans-serif" font-size="14.00" fill="#000000"> &#160;Declarations</text>
<polygon fill="#8dd3c7" stroke="transparent" points="2047.5,-10 2047.5,-30 2067.5,-30 2067.5,-10 2047.5,-10"/>
<text text-anchor="start" x="2071.2251" y="-15.4" font-family="sans-serif" font-size="14.00" fill="#000000"> &#160;Module</text>
<polygon fill="#80b1d3" stroke="transparent" points="2133.5,-10 2133.5,-30 2153.5,-30 2153.5,-10 2133.5,-10"/>
<text text-anchor="start" x="2157.2812" y="-15.4" font-family="sans-serif" font-size="14.00" fill="#000000"> &#160;Bootstrap</text>
<polygon fill="#fdb462" stroke="transparent" points="2230.5,-10 2230.5,-30 2250.5,-30 2250.5,-10 2230.5,-10"/>
<text text-anchor="start" x="2254.1732" y="-15.4" font-family="sans-serif" font-size="14.00" fill="#000000"> &#160;Providers</text>
<polygon fill="#fb8072" stroke="transparent" points="2326.5,-10 2326.5,-30 2346.5,-30 2346.5,-10 2326.5,-10"/>
<text text-anchor="start" x="2350.2258" y="-15.4" font-family="sans-serif" font-size="14.00" fill="#000000"> &#160;Exports</text>
<g id="clust1" class="cluster">
<title>cluster_AppModule</title>
<polygon fill="none" stroke="#000000" stroke-dasharray="1,5" points="8,-70 8,-268 4329,-268 4329,-70 8,-70"/>
</g>
<g id="clust2" class="cluster">
<title>cluster_AppModule_declarations</title>
<polygon fill="none" stroke="#000000" points="2321,-78 2321,-130 4321,-130 4321,-78 2321,-78"/>
</g>
<g id="clust18" class="cluster">
<title>cluster_AppModule_imports</title>
<polygon fill="none" stroke="#000000" points="1650,-78 1650,-130 2313,-130 2313,-78 1650,-78"/>
</g>
<g id="clust20" class="cluster">
<title>cluster_AppModule_bootstrap</title>
<polygon fill="none" stroke="#000000" points="2314,-208 2314,-260 2438,-260 2438,-208 2314,-208"/>
</g>
<g id="clust21" class="cluster">
<title>cluster_AppModule_providers</title>
<polygon fill="none" stroke="#000000" points="16,-78 16,-130 1642,-130 1642,-78 16,-78"/>
</g>
<!-- AboutComponent -->
<g id="node1" class="node">
<title>AboutComponent</title>
<polygon fill="#ffffb3" stroke="#000000" points="4313.3301,-122 4196.6699,-122 4196.6699,-86 4313.3301,-86 4313.3301,-122"/>
<text text-anchor="middle" x="4255" y="-99.8" font-family="Times,serif" font-size="14.00" fill="#000000">AboutComponent</text>
</g>
<!-- AppModule -->
<g id="node16" class="node">
<title>AppModule</title>
<polygon fill="#8dd3c7" stroke="#000000" points="2417.6571,-187 2414.6571,-191 2393.6571,-191 2390.6571,-187 2334.3429,-187 2334.3429,-151 2417.6571,-151 2417.6571,-187"/>
<text text-anchor="middle" x="2376" y="-164.8" font-family="Times,serif" font-size="14.00" fill="#000000">AppModule</text>
</g>
<!-- AboutComponent&#45;&gt;AppModule -->
<g id="edge1" class="edge">
<title>AboutComponent&#45;&gt;AppModule</title>
<path fill="none" stroke="#000000" d="M4255,-122.3802C4255,-146.2785 4255,-185 4255,-185 4255,-185 2427.8801,-185 2427.8801,-185"/>
<polygon fill="#000000" stroke="#000000" points="2427.8801,-181.5001 2417.8801,-185 2427.88,-188.5001 2427.8801,-181.5001"/>
</g>
<!-- AppComponent -->
<g id="node2" class="node">
<title>AppComponent</title>
<polygon fill="#ffffb3" stroke="#000000" points="4178.9399,-122 4073.0601,-122 4073.0601,-86 4178.9399,-86 4178.9399,-122"/>
<text text-anchor="middle" x="4126" y="-99.8" font-family="Times,serif" font-size="14.00" fill="#000000">AppComponent</text>
</g>
<!-- AppComponent&#45;&gt;AppModule -->
<g id="edge2" class="edge">
<title>AppComponent&#45;&gt;AppModule</title>
<path fill="none" stroke="#000000" d="M4126,-122.3228C4126,-145.6602 4126,-183 4126,-183 4126,-183 2427.9611,-183 2427.9611,-183"/>
<polygon fill="#000000" stroke="#000000" points="2427.9611,-179.5001 2417.9611,-183 2427.961,-186.5001 2427.9611,-179.5001"/>
</g>
<!-- ContactComponent -->
<g id="node3" class="node">
<title>ContactComponent</title>
<polygon fill="#ffffb3" stroke="#000000" points="4055.3795,-122 3930.6205,-122 3930.6205,-86 4055.3795,-86 4055.3795,-122"/>
<text text-anchor="middle" x="3993" y="-99.8" font-family="Times,serif" font-size="14.00" fill="#000000">ContactComponent</text>
</g>
<!-- ContactComponent&#45;&gt;AppModule -->
<g id="edge3" class="edge">
<title>ContactComponent&#45;&gt;AppModule</title>
<path fill="none" stroke="#000000" d="M3993,-122.0109C3993,-144.4852 3993,-180 3993,-180 3993,-180 2428.0069,-180 2428.0069,-180"/>
<polygon fill="#000000" stroke="#000000" points="2428.0069,-176.5001 2418.0069,-180 2428.0068,-183.5001 2428.0069,-176.5001"/>
</g>
<!-- ContactFormComponent -->
<g id="node4" class="node">
<title>ContactFormComponent</title>
<polygon fill="#ffffb3" stroke="#000000" points="3912.7133,-122 3757.2867,-122 3757.2867,-86 3912.7133,-86 3912.7133,-122"/>
<text text-anchor="middle" x="3835" y="-99.8" font-family="Times,serif" font-size="14.00" fill="#000000">ContactFormComponent</text>
</g>
<!-- ContactFormComponent&#45;&gt;AppModule -->
<g id="edge4" class="edge">
<title>ContactFormComponent&#45;&gt;AppModule</title>
<path fill="none" stroke="#000000" d="M3835,-122.2921C3835,-144.2057 3835,-178 3835,-178 3835,-178 2427.7024,-178 2427.7024,-178"/>
<polygon fill="#000000" stroke="#000000" points="2427.7024,-174.5001 2417.7024,-178 2427.7023,-181.5001 2427.7024,-174.5001"/>
</g>
<!-- ContactMapComponent -->
<g id="node5" class="node">
<title>ContactMapComponent</title>
<polygon fill="#ffffb3" stroke="#000000" points="3739.0393,-122 3588.9607,-122 3588.9607,-86 3739.0393,-86 3739.0393,-122"/>
<text text-anchor="middle" x="3664" y="-99.8" font-family="Times,serif" font-size="14.00" fill="#000000">ContactMapComponent</text>
</g>
<!-- ContactMapComponent&#45;&gt;AppModule -->
<g id="edge5" class="edge">
<title>ContactMapComponent&#45;&gt;AppModule</title>
<path fill="none" stroke="#000000" d="M3664,-122.2843C3664,-143.3211 3664,-175 3664,-175 3664,-175 2427.7578,-175 2427.7578,-175"/>
<polygon fill="#000000" stroke="#000000" points="2427.7579,-171.5001 2417.7578,-175 2427.7578,-178.5001 2427.7579,-171.5001"/>
</g>
<!-- EducationComponent -->
<g id="node6" class="node">
<title>EducationComponent</title>
<polygon fill="#ffffb3" stroke="#000000" points="3571.0954,-122 3432.9046,-122 3432.9046,-86 3571.0954,-86 3571.0954,-122"/>
<text text-anchor="middle" x="3502" y="-99.8" font-family="Times,serif" font-size="14.00" fill="#000000">EducationComponent</text>
</g>
<!-- EducationComponent&#45;&gt;AppModule -->
<g id="edge6" class="edge">
<title>EducationComponent&#45;&gt;AppModule</title>
<path fill="none" stroke="#000000" d="M3502,-122.1289C3502,-142.5724 3502,-173 3502,-173 3502,-173 2427.7473,-173 2427.7473,-173"/>
<polygon fill="#000000" stroke="#000000" points="2427.7473,-169.5001 2417.7473,-173 2427.7473,-176.5001 2427.7473,-169.5001"/>
</g>
<!-- ExperienceComponent -->
<g id="node7" class="node">
<title>ExperienceComponent</title>
<polygon fill="#ffffb3" stroke="#000000" points="3415.2949,-122 3270.7051,-122 3270.7051,-86 3415.2949,-86 3415.2949,-122"/>
<text text-anchor="middle" x="3343" y="-99.8" font-family="Times,serif" font-size="14.00" fill="#000000">ExperienceComponent</text>
</g>
<!-- ExperienceComponent&#45;&gt;AppModule -->
<g id="edge7" class="edge">
<title>ExperienceComponent&#45;&gt;AppModule</title>
<path fill="none" stroke="#000000" d="M3343,-122.308C3343,-142.1455 3343,-171 3343,-171 3343,-171 2427.8612,-171 2427.8612,-171"/>
<polygon fill="#000000" stroke="#000000" points="2427.8612,-167.5001 2417.8612,-171 2427.8611,-174.5001 2427.8612,-167.5001"/>
</g>
<!-- FooterComponent -->
<g id="node8" class="node">
<title>FooterComponent</title>
<polygon fill="#ffffb3" stroke="#000000" points="3252.8809,-122 3135.1191,-122 3135.1191,-86 3252.8809,-86 3252.8809,-122"/>
<text text-anchor="middle" x="3194" y="-99.8" font-family="Times,serif" font-size="14.00" fill="#000000">FooterComponent</text>
</g>
<!-- FooterComponent&#45;&gt;AppModule -->
<g id="edge8" class="edge">
<title>FooterComponent&#45;&gt;AppModule</title>
<path fill="none" stroke="#000000" d="M3194,-122.1686C3194,-141.0898 3194,-168 3194,-168 3194,-168 2427.6893,-168 2427.6893,-168"/>
<polygon fill="#000000" stroke="#000000" points="2427.6894,-164.5001 2417.6893,-168 2427.6893,-171.5001 2427.6894,-164.5001"/>
</g>
<!-- HeaderComponent -->
<g id="node9" class="node">
<title>HeaderComponent</title>
<polygon fill="#ffffb3" stroke="#000000" points="3116.7437,-122 2995.2563,-122 2995.2563,-86 3116.7437,-86 3116.7437,-122"/>
<text text-anchor="middle" x="3056" y="-99.8" font-family="Times,serif" font-size="14.00" fill="#000000">HeaderComponent</text>
</g>
<!-- HeaderComponent&#45;&gt;AppModule -->
<g id="edge9" class="edge">
<title>HeaderComponent&#45;&gt;AppModule</title>
<path fill="none" stroke="#000000" d="M3056,-122.2667C3056,-140.5552 3056,-166 3056,-166 3056,-166 2427.7683,-166 2427.7683,-166"/>
<polygon fill="#000000" stroke="#000000" points="2427.7683,-162.5001 2417.7683,-166 2427.7683,-169.5001 2427.7683,-162.5001"/>
</g>
<!-- SkillsComponent -->
<g id="node10" class="node">
<title>SkillsComponent</title>
<polygon fill="#ffffb3" stroke="#000000" points="2977.7316,-122 2864.2684,-122 2864.2684,-86 2977.7316,-86 2977.7316,-122"/>
<text text-anchor="middle" x="2921" y="-99.8" font-family="Times,serif" font-size="14.00" fill="#000000">SkillsComponent</text>
</g>
<!-- SkillsComponent&#45;&gt;AppModule -->
<g id="edge10" class="edge">
<title>SkillsComponent&#45;&gt;AppModule</title>
<path fill="none" stroke="#000000" d="M2921,-122.0225C2921,-139.3734 2921,-163 2921,-163 2921,-163 2427.8603,-163 2427.8603,-163"/>
<polygon fill="#000000" stroke="#000000" points="2427.8603,-159.5001 2417.8603,-163 2427.8603,-166.5001 2427.8603,-159.5001"/>
</g>
<!-- BadgeUrlPipe -->
<g id="node11" class="node">
<title>BadgeUrlPipe</title>
<polygon fill="#ffffb3" stroke="#000000" points="2846.8119,-122 2751.1881,-122 2751.1881,-86 2846.8119,-86 2846.8119,-122"/>
<text text-anchor="middle" x="2799" y="-99.8" font-family="Times,serif" font-size="14.00" fill="#000000">BadgeUrlPipe</text>
</g>
<!-- BadgeUrlPipe&#45;&gt;AppModule -->
<g id="edge11" class="edge">
<title>BadgeUrlPipe&#45;&gt;AppModule</title>
<path fill="none" stroke="#000000" d="M2799,-122.0352C2799,-138.7344 2799,-161 2799,-161 2799,-161 2427.7165,-161 2427.7165,-161"/>
<polygon fill="#000000" stroke="#000000" points="2427.7166,-157.5001 2417.7165,-161 2427.7165,-164.5001 2427.7166,-157.5001"/>
</g>
<!-- MemberDatePipe -->
<g id="node12" class="node">
<title>MemberDatePipe</title>
<polygon fill="#ffffb3" stroke="#000000" points="2733.2395,-122 2618.7605,-122 2618.7605,-86 2733.2395,-86 2733.2395,-122"/>
<text text-anchor="middle" x="2676" y="-99.8" font-family="Times,serif" font-size="14.00" fill="#000000">MemberDatePipe</text>
</g>
<!-- MemberDatePipe&#45;&gt;AppModule -->
<g id="edge12" class="edge">
<title>MemberDatePipe&#45;&gt;AppModule</title>
<path fill="none" stroke="#000000" d="M2676,-122.0091C2676,-138.0494 2676,-159 2676,-159 2676,-159 2427.7137,-159 2427.7137,-159"/>
<polygon fill="#000000" stroke="#000000" points="2427.7137,-155.5001 2417.7137,-159 2427.7137,-162.5001 2427.7137,-155.5001"/>
</g>
<!-- ScorePipe -->
<g id="node13" class="node">
<title>ScorePipe</title>
<polygon fill="#ffffb3" stroke="#000000" points="2600.2606,-122 2527.7394,-122 2527.7394,-86 2600.2606,-86 2600.2606,-122"/>
<text text-anchor="middle" x="2564" y="-99.8" font-family="Times,serif" font-size="14.00" fill="#000000">ScorePipe</text>
</g>
<!-- ScorePipe&#45;&gt;AppModule -->
<g id="edge13" class="edge">
<title>ScorePipe&#45;&gt;AppModule</title>
<path fill="none" stroke="#000000" d="M2564,-122.1871C2564,-137.1824 2564,-156 2564,-156 2564,-156 2427.7233,-156 2427.7233,-156"/>
<polygon fill="#000000" stroke="#000000" points="2427.7233,-152.5001 2417.7233,-156 2427.7233,-159.5001 2427.7233,-152.5001"/>
</g>
<!-- TrimPipe -->
<g id="node14" class="node">
<title>TrimPipe</title>
<polygon fill="#ffffb3" stroke="#000000" points="2509.3823,-122 2440.6177,-122 2440.6177,-86 2509.3823,-86 2509.3823,-122"/>
<text text-anchor="middle" x="2475" y="-99.8" font-family="Times,serif" font-size="14.00" fill="#000000">TrimPipe</text>
</g>
<!-- TrimPipe&#45;&gt;AppModule -->
<g id="edge14" class="edge">
<title>TrimPipe&#45;&gt;AppModule</title>
<path fill="none" stroke="#000000" d="M2475,-122.0511C2475,-136.373 2475,-154 2475,-154 2475,-154 2427.698,-154 2427.698,-154"/>
<polygon fill="#000000" stroke="#000000" points="2427.698,-150.5001 2417.698,-154 2427.6979,-157.5001 2427.698,-150.5001"/>
</g>
<!-- VideoUrlPipe -->
<g id="node15" class="node">
<title>VideoUrlPipe</title>
<polygon fill="#ffffb3" stroke="#000000" points="2422.7577,-122 2329.2423,-122 2329.2423,-86 2422.7577,-86 2422.7577,-122"/>
<text text-anchor="middle" x="2376" y="-99.8" font-family="Times,serif" font-size="14.00" fill="#000000">VideoUrlPipe</text>
</g>
<!-- VideoUrlPipe&#45;&gt;AppModule -->
<g id="edge15" class="edge">
<title>VideoUrlPipe&#45;&gt;AppModule</title>
<path fill="none" stroke="#000000" d="M2376,-122.1061C2376,-122.1061 2376,-140.991 2376,-140.991"/>
<polygon fill="#000000" stroke="#000000" points="2372.5001,-140.9909 2376,-150.991 2379.5001,-140.991 2372.5001,-140.9909"/>
</g>
<!-- AppComponent  -->
<g id="node22" class="node">
<title>AppComponent </title>
<polygon fill="#80b1d3" stroke="#000000" points="2430.439,-252 2321.561,-252 2321.561,-216 2430.439,-216 2430.439,-252"/>
<text text-anchor="middle" x="2376" y="-229.8" font-family="Times,serif" font-size="14.00" fill="#000000">AppComponent </text>
</g>
<!-- AppModule&#45;&gt;AppComponent  -->
<g id="edge21" class="edge">
<title>AppModule&#45;&gt;AppComponent </title>
<path fill="none" stroke="#000000" stroke-dasharray="1,5" d="M2376,-187.1061C2376,-187.1061 2376,-205.991 2376,-205.991"/>
<polygon fill="#000000" stroke="#000000" points="2372.5001,-205.9909 2376,-215.991 2379.5001,-205.991 2372.5001,-205.9909"/>
</g>
<!-- BrowserModule -->
<g id="node17" class="node">
<title>BrowserModule</title>
<polygon fill="#8dd3c7" stroke="#000000" points="2305.4734,-122 2302.4734,-126 2281.4734,-126 2278.4734,-122 2198.5266,-122 2198.5266,-86 2305.4734,-86 2305.4734,-122"/>
<text text-anchor="middle" x="2252" y="-99.8" font-family="Times,serif" font-size="14.00" fill="#000000">BrowserModule</text>
</g>
<!-- BrowserModule&#45;&gt;AppModule -->
<g id="edge16" class="edge">
<title>BrowserModule&#45;&gt;AppModule</title>
<path fill="none" stroke="#000000" d="M2252,-122.0511C2252,-136.373 2252,-154 2252,-154 2252,-154 2324.0193,-154 2324.0193,-154"/>
<polygon fill="#000000" stroke="#000000" points="2324.0193,-157.5001 2334.0193,-154 2324.0192,-150.5001 2324.0193,-157.5001"/>
</g>
<!-- CommonModule -->
<g id="node18" class="node">
<title>CommonModule</title>
<polygon fill="#8dd3c7" stroke="#000000" points="2180.6681,-122 2177.6681,-126 2156.6681,-126 2153.6681,-122 2069.3319,-122 2069.3319,-86 2180.6681,-86 2180.6681,-122"/>
<text text-anchor="middle" x="2125" y="-99.8" font-family="Times,serif" font-size="14.00" fill="#000000">CommonModule</text>
</g>
<!-- CommonModule&#45;&gt;AppModule -->
<g id="edge17" class="edge">
<title>CommonModule&#45;&gt;AppModule</title>
<path fill="none" stroke="#000000" d="M2125,-122.1871C2125,-137.1824 2125,-156 2125,-156 2125,-156 2324.2707,-156 2324.2707,-156"/>
<polygon fill="#000000" stroke="#000000" points="2324.2707,-159.5001 2334.2707,-156 2324.2707,-152.5001 2324.2707,-159.5001"/>
</g>
<!-- FormsModule -->
<g id="node19" class="node">
<title>FormsModule</title>
<polygon fill="#8dd3c7" stroke="#000000" points="2051.8288,-122 2048.8288,-126 2027.8288,-126 2024.8288,-122 1956.1712,-122 1956.1712,-86 2051.8288,-86 2051.8288,-122"/>
<text text-anchor="middle" x="2004" y="-99.8" font-family="Times,serif" font-size="14.00" fill="#000000">FormsModule</text>
</g>
<!-- FormsModule&#45;&gt;AppModule -->
<g id="edge18" class="edge">
<title>FormsModule&#45;&gt;AppModule</title>
<path fill="none" stroke="#000000" d="M2004,-122.0091C2004,-138.0494 2004,-159 2004,-159 2004,-159 2324.05,-159 2324.05,-159"/>
<polygon fill="#000000" stroke="#000000" points="2324.05,-162.5001 2334.05,-159 2324.05,-155.5001 2324.05,-162.5001"/>
</g>
<!-- HttpClientModule -->
<g id="node20" class="node">
<title>HttpClientModule</title>
<polygon fill="#8dd3c7" stroke="#000000" points="1938.1611,-122 1935.1611,-126 1914.1611,-126 1911.1611,-122 1819.8389,-122 1819.8389,-86 1938.1611,-86 1938.1611,-122"/>
<text text-anchor="middle" x="1879" y="-99.8" font-family="Times,serif" font-size="14.00" fill="#000000">HttpClientModule</text>
</g>
<!-- HttpClientModule&#45;&gt;AppModule -->
<g id="edge19" class="edge">
<title>HttpClientModule&#45;&gt;AppModule</title>
<path fill="none" stroke="#000000" d="M1879,-122.0352C1879,-138.7344 1879,-161 1879,-161 1879,-161 2324.0544,-161 2324.0544,-161"/>
<polygon fill="#000000" stroke="#000000" points="2324.0544,-164.5001 2334.0544,-161 2324.0544,-157.5001 2324.0544,-164.5001"/>
</g>
<!-- ReactiveFormsModule -->
<g id="node21" class="node">
<title>ReactiveFormsModule</title>
<polygon fill="#8dd3c7" stroke="#000000" points="1802.3047,-122 1799.3047,-126 1778.3047,-126 1775.3047,-122 1657.6953,-122 1657.6953,-86 1802.3047,-86 1802.3047,-122"/>
<text text-anchor="middle" x="1730" y="-99.8" font-family="Times,serif" font-size="14.00" fill="#000000">ReactiveFormsModule</text>
</g>
<!-- ReactiveFormsModule&#45;&gt;AppModule -->
<g id="edge20" class="edge">
<title>ReactiveFormsModule&#45;&gt;AppModule</title>
<path fill="none" stroke="#000000" d="M1730,-122.0225C1730,-139.3734 1730,-163 1730,-163 1730,-163 2324.1119,-163 2324.1119,-163"/>
<polygon fill="#000000" stroke="#000000" points="2324.1119,-166.5001 2334.1119,-163 2324.1118,-159.5001 2324.1119,-166.5001"/>
</g>
<!-- { provide: APP_BASE_HREF, useValue: &#39;/&#39; } -->
<g id="node23" class="node">
<title>{ provide: APP_BASE_HREF, useValue: &#39;/&#39; }</title>
<ellipse fill="#fdb462" stroke="#000000" cx="1443" cy="-104" rx="191.343" ry="18"/>
<text text-anchor="middle" x="1443" y="-99.8" font-family="Times,serif" font-size="14.00" fill="#000000">{ provide: APP_BASE_HREF, useValue: &#39;/&#39; }</text>
</g>
<!-- { provide: APP_BASE_HREF, useValue: &#39;/&#39; }&#45;&gt;AppModule -->
<g id="edge22" class="edge">
<title>{ provide: APP_BASE_HREF, useValue: &#39;/&#39; }&#45;&gt;AppModule</title>
<path fill="none" stroke="#000000" d="M1443,-122.2667C1443,-140.5552 1443,-166 1443,-166 1443,-166 2324.0984,-166 2324.0984,-166"/>
<polygon fill="#000000" stroke="#000000" points="2324.0984,-169.5001 2334.0984,-166 2324.0984,-162.5001 2324.0984,-169.5001"/>
</g>
<!-- FormBuilder -->
<g id="node24" class="node">
<title>FormBuilder</title>
<ellipse fill="#fdb462" stroke="#000000" cx="1173" cy="-104" rx="60.8525" ry="18"/>
<text text-anchor="middle" x="1173" y="-99.8" font-family="Times,serif" font-size="14.00" fill="#000000">FormBuilder</text>
</g>
<!-- FormBuilder&#45;&gt;AppModule -->
<g id="edge23" class="edge">
<title>FormBuilder&#45;&gt;AppModule</title>
<path fill="none" stroke="#000000" d="M1173,-122.1686C1173,-141.0898 1173,-168 1173,-168 1173,-168 2324.2407,-168 2324.2407,-168"/>
<polygon fill="#000000" stroke="#000000" points="2324.2407,-171.5001 2334.2407,-168 2324.2406,-164.5001 2324.2407,-171.5001"/>
</g>
<!-- AppService -->
<g id="node25" class="node">
<title>AppService</title>
<ellipse fill="#fdb462" stroke="#000000" cx="1037" cy="-104" rx="56.7406" ry="18"/>
<text text-anchor="middle" x="1037" y="-99.8" font-family="Times,serif" font-size="14.00" fill="#000000">AppService</text>
</g>
<!-- AppService&#45;&gt;AppModule -->
<g id="edge24" class="edge">
<title>AppService&#45;&gt;AppModule</title>
<path fill="none" stroke="#000000" d="M1037,-122.308C1037,-142.1455 1037,-171 1037,-171 1037,-171 2324.0872,-171 2324.0872,-171"/>
<polygon fill="#000000" stroke="#000000" points="2324.0873,-174.5001 2334.0872,-171 2324.0872,-167.5001 2324.0873,-174.5001"/>
</g>
<!-- ContactService -->
<g id="node26" class="node">
<title>ContactService</title>
<ellipse fill="#fdb462" stroke="#000000" cx="892" cy="-104" rx="70.0596" ry="18"/>
<text text-anchor="middle" x="892" y="-99.8" font-family="Times,serif" font-size="14.00" fill="#000000">ContactService</text>
</g>
<!-- ContactService&#45;&gt;AppModule -->
<g id="edge25" class="edge">
<title>ContactService&#45;&gt;AppModule</title>
<path fill="none" stroke="#000000" d="M892,-122.1289C892,-142.5724 892,-173 892,-173 892,-173 2323.9772,-173 2323.9772,-173"/>
<polygon fill="#000000" stroke="#000000" points="2323.9773,-176.5001 2333.9772,-173 2323.9772,-169.5001 2323.9773,-176.5001"/>
</g>
<!-- EducationService -->
<g id="node27" class="node">
<title>EducationService</title>
<ellipse fill="#fdb462" stroke="#000000" cx="725" cy="-104" rx="79.2922" ry="18"/>
<text text-anchor="middle" x="725" y="-99.8" font-family="Times,serif" font-size="14.00" fill="#000000">EducationService</text>
</g>
<!-- EducationService&#45;&gt;AppModule -->
<g id="edge26" class="edge">
<title>EducationService&#45;&gt;AppModule</title>
<path fill="none" stroke="#000000" d="M725,-122.2843C725,-143.3211 725,-175 725,-175 725,-175 2323.9471,-175 2323.9471,-175"/>
<polygon fill="#000000" stroke="#000000" points="2323.9471,-178.5001 2333.9471,-175 2323.947,-171.5001 2323.9471,-178.5001"/>
</g>
<!-- ExperienceService -->
<g id="node28" class="node">
<title>ExperienceService</title>
<ellipse fill="#fdb462" stroke="#000000" cx="544" cy="-104" rx="83.3442" ry="18"/>
<text text-anchor="middle" x="544" y="-99.8" font-family="Times,serif" font-size="14.00" fill="#000000">ExperienceService</text>
</g>
<!-- ExperienceService&#45;&gt;AppModule -->
<g id="edge27" class="edge">
<title>ExperienceService&#45;&gt;AppModule</title>
<path fill="none" stroke="#000000" d="M544,-122.2921C544,-144.2057 544,-178 544,-178 544,-178 2324.294,-178 2324.294,-178"/>
<polygon fill="#000000" stroke="#000000" points="2324.294,-181.5001 2334.294,-178 2324.294,-174.5001 2324.294,-181.5001"/>
</g>
<!-- FooterService -->
<g id="node29" class="node">
<title>FooterService</title>
<ellipse fill="#fdb462" stroke="#000000" cx="377" cy="-104" rx="65.4053" ry="18"/>
<text text-anchor="middle" x="377" y="-99.8" font-family="Times,serif" font-size="14.00" fill="#000000">FooterService</text>
</g>
<!-- FooterService&#45;&gt;AppModule -->
<g id="edge28" class="edge">
<title>FooterService&#45;&gt;AppModule</title>
<path fill="none" stroke="#000000" d="M377,-122.0109C377,-144.4852 377,-180 377,-180 377,-180 2324.248,-180 2324.248,-180"/>
<polygon fill="#000000" stroke="#000000" points="2324.2481,-183.5001 2334.248,-180 2324.248,-176.5001 2324.2481,-183.5001"/>
</g>
<!-- HeaderService -->
<g id="node30" class="node">
<title>HeaderService</title>
<ellipse fill="#fdb462" stroke="#000000" cx="226" cy="-104" rx="67.7336" ry="18"/>
<text text-anchor="middle" x="226" y="-99.8" font-family="Times,serif" font-size="14.00" fill="#000000">HeaderService</text>
</g>
<!-- HeaderService&#45;&gt;AppModule -->
<g id="edge29" class="edge">
<title>HeaderService&#45;&gt;AppModule</title>
<path fill="none" stroke="#000000" d="M226,-122.3228C226,-145.6602 226,-183 226,-183 226,-183 2324.017,-183 2324.017,-183"/>
<polygon fill="#000000" stroke="#000000" points="2324.017,-186.5001 2334.017,-183 2324.0169,-179.5001 2324.017,-186.5001"/>
</g>
<!-- SkillService -->
<g id="node31" class="node">
<title>SkillService</title>
<ellipse fill="#fdb462" stroke="#000000" cx="82" cy="-104" rx="58.4803" ry="18"/>
<text text-anchor="middle" x="82" y="-99.8" font-family="Times,serif" font-size="14.00" fill="#000000">SkillService</text>
</g>
<!-- SkillService&#45;&gt;AppModule -->
<g id="edge30" class="edge">
<title>SkillService&#45;&gt;AppModule</title>
<path fill="none" stroke="#000000" d="M82,-122.3802C82,-146.2785 82,-185 82,-185 82,-185 2324.2251,-185 2324.2251,-185"/>
<polygon fill="#000000" stroke="#000000" points="2324.2251,-188.5001 2334.2251,-185 2324.225,-181.5001 2324.2251,-188.5001"/>
</g>
</g>
</svg>
