<?xml version="1.0" encoding="UTF-8" standalone="no"?>
<!DOCTYPE svg PUBLIC "-//W3C//DTD SVG 1.1//EN"
 "http://www.w3.org/Graphics/SVG/1.1/DTD/svg11.dtd">
<!-- Generated by graphviz version 2.40.1 (20161225.0304)
 -->
<!-- Title: dependencies Pages: 1 -->
<svg width="3029pt" height="284pt"
 viewBox="0.00 0.00 3029.00 284.00" xmlns="http://www.w3.org/2000/svg" xmlns:xlink="http://www.w3.org/1999/xlink">
<g id="graph0" class="graph" transform="scale(1 1) rotate(0) translate(4 280)">
<title>dependencies</title>
<polygon fill="#ffffff" stroke="transparent" points="-4,4 -4,-280 3025,-280 3025,4 -4,4"/>
<text text-anchor="start" x="1489.5091" y="-42.4" font-family="sans-serif" font-weight="bold" font-size="14.00" fill="#000000">Legend</text>
<polygon fill="#ffffb3" stroke="transparent" points="1276.5,-10 1276.5,-30 1296.5,-30 1296.5,-10 1276.5,-10"/>
<text text-anchor="start" x="1300.129" y="-15.4" font-family="sans-serif" font-size="14.00" fill="#000000"> &#160;Declarations</text>
<polygon fill="#8dd3c7" stroke="transparent" points="1389.5,-10 1389.5,-30 1409.5,-30 1409.5,-10 1389.5,-10"/>
<text text-anchor="start" x="1413.2251" y="-15.4" font-family="sans-serif" font-size="14.00" fill="#000000"> &#160;Module</text>
<polygon fill="#80b1d3" stroke="transparent" points="1475.5,-10 1475.5,-30 1495.5,-30 1495.5,-10 1475.5,-10"/>
<text text-anchor="start" x="1499.2812" y="-15.4" font-family="sans-serif" font-size="14.00" fill="#000000"> &#160;Bootstrap</text>
<polygon fill="#fdb462" stroke="transparent" points="1572.5,-10 1572.5,-30 1592.5,-30 1592.5,-10 1572.5,-10"/>
<text text-anchor="start" x="1596.1732" y="-15.4" font-family="sans-serif" font-size="14.00" fill="#000000"> &#160;Providers</text>
<polygon fill="#fb8072" stroke="transparent" points="1668.5,-10 1668.5,-30 1688.5,-30 1688.5,-10 1668.5,-10"/>
<text text-anchor="start" x="1692.2258" y="-15.4" font-family="sans-serif" font-size="14.00" fill="#000000"> &#160;Exports</text>
<g id="clust1" class="cluster">
<title>cluster_AppModule</title>
<polygon fill="none" stroke="#000000" stroke-dasharray="1,5" points="8,-70 8,-268 3013,-268 3013,-70 8,-70"/>
</g>
<g id="clust2" class="cluster">
<title>cluster_AppModule_declarations</title>
<polygon fill="none" stroke="#000000" points="875,-78 875,-130 3005,-130 3005,-78 875,-78"/>
</g>
<g id="clust21" class="cluster">
<title>cluster_AppModule_bootstrap</title>
<polygon fill="none" stroke="#000000" points="1485,-208 1485,-260 1609,-260 1609,-208 1485,-208"/>
</g>
<g id="clust22" class="cluster">
<title>cluster_AppModule_providers</title>
<polygon fill="none" stroke="#000000" points="16,-78 16,-130 867,-130 867,-78 16,-78"/>
</g>
<!-- AboutComponent -->
<g id="node1" class="node">
<title>AboutComponent</title>
<polygon fill="#ffffb3" stroke="#000000" points="2997.3301,-122 2880.6699,-122 2880.6699,-86 2997.3301,-86 2997.3301,-122"/>
<text text-anchor="middle" x="2939" y="-99.8" font-family="Times,serif" font-size="14.00" fill="#000000">AboutComponent</text>
</g>
<!-- AppModule -->
<g id="node17" class="node">
<title>AppModule</title>
<polygon fill="#8dd3c7" stroke="#000000" points="1588.6571,-187 1585.6571,-191 1564.6571,-191 1561.6571,-187 1505.3429,-187 1505.3429,-151 1588.6571,-151 1588.6571,-187"/>
<text text-anchor="middle" x="1547" y="-164.8" font-family="Times,serif" font-size="14.00" fill="#000000">AppModule</text>
</g>
<!-- AboutComponent&#45;&gt;AppModule -->
<g id="edge1" class="edge">
<title>AboutComponent&#45;&gt;AppModule</title>
<path fill="none" stroke="#000000" d="M2939,-122.1532C2939,-145.7566 2939,-184 2939,-184 2939,-184 1598.6598,-184 1598.6598,-184"/>
<polygon fill="#000000" stroke="#000000" points="1598.6598,-180.5001 1588.6598,-184 1598.6598,-187.5001 1598.6598,-180.5001"/>
</g>
<!-- AppComponent -->
<g id="node2" class="node">
<title>AppComponent</title>
<polygon fill="#ffffb3" stroke="#000000" points="2862.9399,-122 2757.0601,-122 2757.0601,-86 2862.9399,-86 2862.9399,-122"/>
<text text-anchor="middle" x="2810" y="-99.8" font-family="Times,serif" font-size="14.00" fill="#000000">AppComponent</text>
</g>
<!-- AppComponent&#45;&gt;AppModule -->
<g id="edge2" class="edge">
<title>AppComponent&#45;&gt;AppModule</title>
<path fill="none" stroke="#000000" d="M2810,-122.2479C2810,-145.0179 2810,-181 2810,-181 2810,-181 1598.6625,-181 1598.6625,-181"/>
<polygon fill="#000000" stroke="#000000" points="1598.6626,-177.5001 1588.6625,-181 1598.6625,-184.5001 1598.6626,-177.5001"/>
</g>
<!-- BadgeUrlPipe -->
<g id="node3" class="node">
<title>BadgeUrlPipe</title>
<polygon fill="#ffffb3" stroke="#000000" points="2739.8119,-122 2644.1881,-122 2644.1881,-86 2739.8119,-86 2739.8119,-122"/>
<text text-anchor="middle" x="2692" y="-99.8" font-family="Times,serif" font-size="14.00" fill="#000000">BadgeUrlPipe</text>
</g>
<!-- BadgeUrlPipe&#45;&gt;AppModule -->
<g id="edge3" class="edge">
<title>BadgeUrlPipe&#45;&gt;AppModule</title>
<path fill="none" stroke="#000000" d="M2692,-122.2921C2692,-144.2057 2692,-178 2692,-178 2692,-178 1598.7677,-178 1598.7677,-178"/>
<polygon fill="#000000" stroke="#000000" points="1598.7677,-174.5001 1588.7677,-178 1598.7677,-181.5001 1598.7677,-174.5001"/>
</g>
<!-- ContactComponent -->
<g id="node4" class="node">
<title>ContactComponent</title>
<polygon fill="#ffffb3" stroke="#000000" points="2626.3795,-122 2501.6205,-122 2501.6205,-86 2626.3795,-86 2626.3795,-122"/>
<text text-anchor="middle" x="2564" y="-99.8" font-family="Times,serif" font-size="14.00" fill="#000000">ContactComponent</text>
</g>
<!-- ContactComponent&#45;&gt;AppModule -->
<g id="edge4" class="edge">
<title>ContactComponent&#45;&gt;AppModule</title>
<path fill="none" stroke="#000000" d="M2564,-122.0267C2564,-142.7672 2564,-174 2564,-174 2564,-174 1598.7636,-174 1598.7636,-174"/>
<polygon fill="#000000" stroke="#000000" points="1598.7637,-170.5001 1588.7636,-174 1598.7636,-177.5001 1598.7637,-170.5001"/>
</g>
<!-- ContactFormComponent -->
<g id="node5" class="node">
<title>ContactFormComponent</title>
<polygon fill="#ffffb3" stroke="#000000" points="2483.7133,-122 2328.2867,-122 2328.2867,-86 2483.7133,-86 2483.7133,-122"/>
<text text-anchor="middle" x="2406" y="-99.8" font-family="Times,serif" font-size="14.00" fill="#000000">ContactFormComponent</text>
</g>
<!-- ContactFormComponent&#45;&gt;AppModule -->
<g id="edge5" class="edge">
<title>ContactFormComponent&#45;&gt;AppModule</title>
<path fill="none" stroke="#000000" d="M2406,-122.308C2406,-142.1455 2406,-171 2406,-171 2406,-171 1598.7217,-171 1598.7217,-171"/>
<polygon fill="#000000" stroke="#000000" points="1598.7217,-167.5001 1588.7217,-171 1598.7216,-174.5001 1598.7217,-167.5001"/>
</g>
<!-- EducationComponent -->
<g id="node6" class="node">
<title>EducationComponent</title>
<polygon fill="#ffffb3" stroke="#000000" points="2310.0954,-122 2171.9046,-122 2171.9046,-86 2310.0954,-86 2310.0954,-122"/>
<text text-anchor="middle" x="2241" y="-99.8" font-family="Times,serif" font-size="14.00" fill="#000000">EducationComponent</text>
</g>
<!-- EducationComponent&#45;&gt;AppModule -->
<g id="edge6" class="edge">
<title>EducationComponent&#45;&gt;AppModule</title>
<path fill="none" stroke="#000000" d="M2241,-122.1686C2241,-141.0898 2241,-168 2241,-168 2241,-168 1598.8499,-168 1598.8499,-168"/>
<polygon fill="#000000" stroke="#000000" points="1598.85,-164.5001 1588.8499,-168 1598.8499,-171.5001 1598.85,-164.5001"/>
</g>
<!-- ExperienceComponent -->
<g id="node7" class="node">
<title>ExperienceComponent</title>
<polygon fill="#ffffb3" stroke="#000000" points="2154.2949,-122 2009.7051,-122 2009.7051,-86 2154.2949,-86 2154.2949,-122"/>
<text text-anchor="middle" x="2082" y="-99.8" font-family="Times,serif" font-size="14.00" fill="#000000">ExperienceComponent</text>
</g>
<!-- ExperienceComponent&#45;&gt;AppModule -->
<g id="edge7" class="edge">
<title>ExperienceComponent&#45;&gt;AppModule</title>
<path fill="none" stroke="#000000" d="M2082,-122.302C2082,-140.2699 2082,-165 2082,-165 2082,-165 1598.9806,-165 1598.9806,-165"/>
<polygon fill="#000000" stroke="#000000" points="1598.9806,-161.5001 1588.9806,-165 1598.9805,-168.5001 1598.9806,-161.5001"/>
</g>
<!-- FooterComponent -->
<g id="node8" class="node">
<title>FooterComponent</title>
<polygon fill="#ffffb3" stroke="#000000" points="1991.8809,-122 1874.1191,-122 1874.1191,-86 1991.8809,-86 1991.8809,-122"/>
<text text-anchor="middle" x="1933" y="-99.8" font-family="Times,serif" font-size="14.00" fill="#000000">FooterComponent</text>
</g>
<!-- FooterComponent&#45;&gt;AppModule -->
<g id="edge8" class="edge">
<title>FooterComponent&#45;&gt;AppModule</title>
<path fill="none" stroke="#000000" d="M1933,-122.0352C1933,-138.7344 1933,-161 1933,-161 1933,-161 1598.6755,-161 1598.6755,-161"/>
<polygon fill="#000000" stroke="#000000" points="1598.6755,-157.5001 1588.6755,-161 1598.6755,-164.5001 1598.6755,-157.5001"/>
</g>
<!-- HeaderComponent -->
<g id="node9" class="node">
<title>HeaderComponent</title>
<polygon fill="#ffffb3" stroke="#000000" points="1855.7437,-122 1734.2563,-122 1734.2563,-86 1855.7437,-86 1855.7437,-122"/>
<text text-anchor="middle" x="1795" y="-99.8" font-family="Times,serif" font-size="14.00" fill="#000000">HeaderComponent</text>
</g>
<!-- HeaderComponent&#45;&gt;AppModule -->
<g id="edge9" class="edge">
<title>HeaderComponent&#45;&gt;AppModule</title>
<path fill="none" stroke="#000000" d="M1795,-122.2819C1795,-137.9478 1795,-158 1795,-158 1795,-158 1598.7894,-158 1598.7894,-158"/>
<polygon fill="#000000" stroke="#000000" points="1598.7894,-154.5001 1588.7894,-158 1598.7893,-161.5001 1598.7894,-154.5001"/>
</g>
<!-- MemberDatePipe -->
<g id="node10" class="node">
<title>MemberDatePipe</title>
<polygon fill="#ffffb3" stroke="#000000" points="1716.2395,-122 1601.7605,-122 1601.7605,-86 1716.2395,-86 1716.2395,-122"/>
<text text-anchor="middle" x="1659" y="-99.8" font-family="Times,serif" font-size="14.00" fill="#000000">MemberDatePipe</text>
</g>
<!-- MemberDatePipe&#45;&gt;AppModule -->
<g id="edge10" class="edge">
<title>MemberDatePipe&#45;&gt;AppModule</title>
<path fill="none" stroke="#000000" d="M1659,-122.1243C1659,-136.7832 1659,-155 1659,-155 1659,-155 1598.7047,-155 1598.7047,-155"/>
<polygon fill="#000000" stroke="#000000" points="1598.7047,-151.5001 1588.7047,-155 1598.7046,-158.5001 1598.7047,-151.5001"/>
</g>
<!-- ScorePipe -->
<g id="node11" class="node">
<title>ScorePipe</title>
<polygon fill="#ffffb3" stroke="#000000" points="1583.2606,-122 1510.7394,-122 1510.7394,-86 1583.2606,-86 1583.2606,-122"/>
<text text-anchor="middle" x="1547" y="-99.8" font-family="Times,serif" font-size="14.00" fill="#000000">ScorePipe</text>
</g>
<!-- ScorePipe&#45;&gt;AppModule -->
<g id="edge11" class="edge">
<title>ScorePipe&#45;&gt;AppModule</title>
<path fill="none" stroke="#000000" d="M1547,-122.1061C1547,-122.1061 1547,-140.991 1547,-140.991"/>
<polygon fill="#000000" stroke="#000000" points="1543.5001,-140.9909 1547,-150.991 1550.5001,-140.991 1543.5001,-140.9909"/>
</g>
<!-- SkillsComponent -->
<g id="node12" class="node">
<title>SkillsComponent</title>
<polygon fill="#ffffb3" stroke="#000000" points="1492.7316,-122 1379.2684,-122 1379.2684,-86 1492.7316,-86 1492.7316,-122"/>
<text text-anchor="middle" x="1436" y="-99.8" font-family="Times,serif" font-size="14.00" fill="#000000">SkillsComponent</text>
</g>
<!-- SkillsComponent&#45;&gt;AppModule -->
<g id="edge12" class="edge">
<title>SkillsComponent&#45;&gt;AppModule</title>
<path fill="none" stroke="#000000" d="M1435.9574,-122.1243C1435.9574,-136.7832 1435.9574,-155 1435.9574,-155 1435.9574,-155 1495.3359,-155 1495.3359,-155"/>
<polygon fill="#000000" stroke="#000000" points="1495.3359,-158.5001 1505.3359,-155 1495.3359,-151.5001 1495.3359,-158.5001"/>
</g>
<!-- TravelComponent -->
<g id="node13" class="node">
<title>TravelComponent</title>
<polygon fill="#ffffb3" stroke="#000000" points="1360.8655,-122 1243.1345,-122 1243.1345,-86 1360.8655,-86 1360.8655,-122"/>
<text text-anchor="middle" x="1302" y="-99.8" font-family="Times,serif" font-size="14.00" fill="#000000">TravelComponent</text>
</g>
<!-- TravelComponent&#45;&gt;AppModule -->
<g id="edge13" class="edge">
<title>TravelComponent&#45;&gt;AppModule</title>
<path fill="none" stroke="#000000" d="M1302,-122.2819C1302,-137.9478 1302,-158 1302,-158 1302,-158 1495.1614,-158 1495.1614,-158"/>
<polygon fill="#000000" stroke="#000000" points="1495.1614,-161.5001 1505.1614,-158 1495.1613,-154.5001 1495.1614,-161.5001"/>
</g>
<!-- TravelMapComponent -->
<g id="node14" class="node">
<title>TravelMapComponent</title>
<polygon fill="#ffffb3" stroke="#000000" points="1224.5254,-122 1081.4746,-122 1081.4746,-86 1224.5254,-86 1224.5254,-122"/>
<text text-anchor="middle" x="1153" y="-99.8" font-family="Times,serif" font-size="14.00" fill="#000000">TravelMapComponent</text>
</g>
<!-- TravelMapComponent&#45;&gt;AppModule -->
<g id="edge14" class="edge">
<title>TravelMapComponent&#45;&gt;AppModule</title>
<path fill="none" stroke="#000000" d="M1153,-122.0352C1153,-138.7344 1153,-161 1153,-161 1153,-161 1495.2081,-161 1495.2081,-161"/>
<polygon fill="#000000" stroke="#000000" points="1495.2081,-164.5001 1505.2081,-161 1495.2081,-157.5001 1495.2081,-164.5001"/>
</g>
<!-- TrimPipe -->
<g id="node15" class="node">
<title>TrimPipe</title>
<polygon fill="#ffffb3" stroke="#000000" points="1063.3823,-122 994.6177,-122 994.6177,-86 1063.3823,-86 1063.3823,-122"/>
<text text-anchor="middle" x="1029" y="-99.8" font-family="Times,serif" font-size="14.00" fill="#000000">TrimPipe</text>
</g>
<!-- TrimPipe&#45;&gt;AppModule -->
<g id="edge15" class="edge">
<title>TrimPipe&#45;&gt;AppModule</title>
<path fill="none" stroke="#000000" d="M1029,-122.302C1029,-140.2699 1029,-165 1029,-165 1029,-165 1495.0487,-165 1495.0487,-165"/>
<polygon fill="#000000" stroke="#000000" points="1495.0487,-168.5001 1505.0487,-165 1495.0486,-161.5001 1495.0487,-168.5001"/>
</g>
<!-- VideoUrlPipe -->
<g id="node16" class="node">
<title>VideoUrlPipe</title>
<polygon fill="#ffffb3" stroke="#000000" points="976.7577,-122 883.2423,-122 883.2423,-86 976.7577,-86 976.7577,-122"/>
<text text-anchor="middle" x="930" y="-99.8" font-family="Times,serif" font-size="14.00" fill="#000000">VideoUrlPipe</text>
</g>
<!-- VideoUrlPipe&#45;&gt;AppModule -->
<g id="edge16" class="edge">
<title>VideoUrlPipe&#45;&gt;AppModule</title>
<path fill="none" stroke="#000000" d="M930,-122.1686C930,-141.0898 930,-168 930,-168 930,-168 1495.0762,-168 1495.0762,-168"/>
<polygon fill="#000000" stroke="#000000" points="1495.0762,-171.5001 1505.0762,-168 1495.0761,-164.5001 1495.0762,-171.5001"/>
</g>
<!-- AppComponent  -->
<g id="node18" class="node">
<title>AppComponent </title>
<polygon fill="#80b1d3" stroke="#000000" points="1601.439,-252 1492.561,-252 1492.561,-216 1601.439,-216 1601.439,-252"/>
<text text-anchor="middle" x="1547" y="-229.8" font-family="Times,serif" font-size="14.00" fill="#000000">AppComponent </text>
</g>
<!-- AppModule&#45;&gt;AppComponent  -->
<g id="edge17" class="edge">
<title>AppModule&#45;&gt;AppComponent </title>
<path fill="none" stroke="#000000" stroke-dasharray="1,5" d="M1547,-187.1061C1547,-187.1061 1547,-205.991 1547,-205.991"/>
<polygon fill="#000000" stroke="#000000" points="1543.5001,-205.9909 1547,-215.991 1550.5001,-205.991 1543.5001,-205.9909"/>
</g>
<!-- ContactService -->
<g id="node19" class="node">
<title>ContactService</title>
<ellipse fill="#fdb462" stroke="#000000" cx="789" cy="-104" rx="70.0596" ry="18"/>
<text text-anchor="middle" x="789" y="-99.8" font-family="Times,serif" font-size="14.00" fill="#000000">ContactService</text>
</g>
<!-- ContactService&#45;&gt;AppModule -->
<g id="edge18" class="edge">
<title>ContactService&#45;&gt;AppModule</title>
<path fill="none" stroke="#000000" d="M789,-122.308C789,-142.1455 789,-171 789,-171 789,-171 1495.1669,-171 1495.1669,-171"/>
<polygon fill="#000000" stroke="#000000" points="1495.167,-174.5001 1505.1669,-171 1495.1669,-167.5001 1495.167,-174.5001"/>
</g>
<!-- EducationService -->
<g id="node20" class="node">
<title>EducationService</title>
<ellipse fill="#fdb462" stroke="#000000" cx="622" cy="-104" rx="79.2922" ry="18"/>
<text text-anchor="middle" x="622" y="-99.8" font-family="Times,serif" font-size="14.00" fill="#000000">EducationService</text>
</g>
<!-- EducationService&#45;&gt;AppModule -->
<g id="edge19" class="edge">
<title>EducationService&#45;&gt;AppModule</title>
<path fill="none" stroke="#000000" d="M622,-122.0267C622,-142.7672 622,-174 622,-174 622,-174 1495.1549,-174 1495.1549,-174"/>
<polygon fill="#000000" stroke="#000000" points="1495.1549,-177.5001 1505.1549,-174 1495.1548,-170.5001 1495.1549,-177.5001"/>
</g>
<!-- HeaderService -->
<g id="node21" class="node">
<title>HeaderService</title>
<ellipse fill="#fdb462" stroke="#000000" cx="457" cy="-104" rx="67.7336" ry="18"/>
<text text-anchor="middle" x="457" y="-99.8" font-family="Times,serif" font-size="14.00" fill="#000000">HeaderService</text>
</g>
<!-- HeaderService&#45;&gt;AppModule -->
<g id="edge20" class="edge">
<title>HeaderService&#45;&gt;AppModule</title>
<path fill="none" stroke="#000000" d="M457,-122.2921C457,-144.2057 457,-178 457,-178 457,-178 1495.2707,-178 1495.2707,-178"/>
<polygon fill="#000000" stroke="#000000" points="1495.2708,-181.5001 1505.2707,-178 1495.2707,-174.5001 1495.2708,-181.5001"/>
</g>
<!-- MapApiLoaderService -->
<g id="node22" class="node">
<title>MapApiLoaderService</title>
<ellipse fill="#fdb462" stroke="#000000" cx="272" cy="-104" rx="99.5385" ry="18"/>
<text text-anchor="middle" x="272" y="-99.8" font-family="Times,serif" font-size="14.00" fill="#000000">MapApiLoaderService</text>
</g>
<!-- MapApiLoaderService&#45;&gt;AppModule -->
<g id="edge21" class="edge">
<title>MapApiLoaderService&#45;&gt;AppModule</title>
<path fill="none" stroke="#000000" d="M272,-122.2479C272,-145.0179 272,-181 272,-181 272,-181 1495.3034,-181 1495.3034,-181"/>
<polygon fill="#000000" stroke="#000000" points="1495.3034,-184.5001 1505.3034,-181 1495.3033,-177.5001 1495.3034,-184.5001"/>
</g>
<!-- TravelService -->
<g id="node23" class="node">
<title>TravelService</title>
<ellipse fill="#fdb462" stroke="#000000" cx="89" cy="-104" rx="65.3839" ry="18"/>
<text text-anchor="middle" x="89" y="-99.8" font-family="Times,serif" font-size="14.00" fill="#000000">TravelService</text>
</g>
<!-- TravelService&#45;&gt;AppModule -->
<g id="edge22" class="edge">
<title>TravelService&#45;&gt;AppModule</title>
<path fill="none" stroke="#000000" d="M89,-122.1532C89,-145.7566 89,-184 89,-184 89,-184 1495.3262,-184 1495.3262,-184"/>
<polygon fill="#000000" stroke="#000000" points="1495.3262,-187.5001 1505.3262,-184 1495.3262,-180.5001 1495.3262,-187.5001"/>
</g>
</g>
</svg>
