<?xml version="1.0" encoding="UTF-8" standalone="no"?>
<!DOCTYPE svg PUBLIC "-//W3C//DTD SVG 1.1//EN"
 "http://www.w3.org/Graphics/SVG/1.1/DTD/svg11.dtd">
<!-- Generated by graphviz version 2.40.1 (20161225.0304)
 -->
<!-- Title: dependencies Pages: 1 -->
<svg width="4345pt" height="284pt"
 viewBox="0.00 0.00 4345.00 284.00" xmlns="http://www.w3.org/2000/svg" xmlns:xlink="http://www.w3.org/1999/xlink">
<g id="graph0" class="graph" transform="scale(1 1) rotate(0) translate(4 280)">
<title>dependencies</title>
<polygon fill="#ffffff" stroke="transparent" points="-4,4 -4,-280 4341,-280 4341,4 -4,4"/>
<text text-anchor="start" x="2147.5091" y="-42.4" font-family="sans-serif" font-weight="bold" font-size="14.00" fill="#000000">Legend</text>
<polygon fill="#ffffb3" stroke="transparent" points="1934.5,-10 1934.5,-30 1954.5,-30 1954.5,-10 1934.5,-10"/>
<text text-anchor="start" x="1958.129" y="-15.4" font-family="sans-serif" font-size="14.00" fill="#000000"> &#160;Declarations</text>
<polygon fill="#8dd3c7" stroke="transparent" points="2047.5,-10 2047.5,-30 2067.5,-30 2067.5,-10 2047.5,-10"/>
<text text-anchor="start" x="2071.2251" y="-15.4" font-family="sans-serif" font-size="14.00" fill="#000000"> &#160;Module</text>
<polygon fill="#80b1d3" stroke="transparent" points="2133.5,-10 2133.5,-30 2153.5,-30 2153.5,-10 2133.5,-10"/>
<text text-anchor="start" x="2157.2812" y="-15.4" font-family="sans-serif" font-size="14.00" fill="#000000"> &#160;Bootstrap</text>
<polygon fill="#fdb462" stroke="transparent" points="2230.5,-10 2230.5,-30 2250.5,-30 2250.5,-10 2230.5,-10"/>
<text text-anchor="start" x="2254.1732" y="-15.4" font-family="sans-serif" font-size="14.00" fill="#000000"> &#160;Providers</text>
<polygon fill="#fb8072" stroke="transparent" points="2326.5,-10 2326.5,-30 2346.5,-30 2346.5,-10 2326.5,-10"/>
<text text-anchor="start" x="2350.2258" y="-15.4" font-family="sans-serif" font-size="14.00" fill="#000000"> &#160;Exports</text>
<g id="clust1" class="cluster">
<title>cluster_AppModule</title>
<polygon fill="none" stroke="#000000" stroke-dasharray="1,5" points="8,-70 8,-268 4329,-268 4329,-70 8,-70"/>
</g>
<g id="clust2" class="cluster">
<title>cluster_AppModule_declarations</title>
<polygon fill="none" stroke="#000000" points="2321,-78 2321,-130 4321,-130 4321,-78 2321,-78"/>
</g>
<g id="clust18" class="cluster">
<title>cluster_AppModule_imports</title>
<polygon fill="none" stroke="#000000" points="1650,-78 1650,-130 2313,-130 2313,-78 1650,-78"/>
</g>
<g id="clust20" class="cluster">
<title>cluster_AppModule_bootstrap</title>
<polygon fill="none" stroke="#000000" points="2314,-208 2314,-260 2438,-260 2438,-208 2314,-208"/>
</g>
<g id="clust21" class="cluster">
<title>cluster_AppModule_providers</title>
<polygon fill="none" stroke="#000000" points="16,-78 16,-130 1642,-130 1642,-78 16,-78"/>
</g>
<!-- AboutComponent -->
<g id="node1" class="node">
<title>AboutComponent</title>
<polygon fill="#ffffb3" stroke="#000000" points="4313.3301,-122 4196.6699,-122 4196.6699,-86 4313.3301,-86 4313.3301,-122"/>
<text text-anchor="middle" x="4255" y="-99.8" font-family="Times,serif" font-size="14.00" fill="#000000">AboutComponent</text>
</g>
<!-- AppModule -->
<g id="node16" class="node">
<title>AppModule</title>
<polygon fill="#8dd3c7" stroke="#000000" points="2417.6571,-187 2414.6571,-191 2393.6571,-191 2390.6571,-187 2334.3429,-187 2334.3429,-151 2417.6571,-151 2417.6571,-187"/>
<text text-anchor="middle" x="2376" y="-164.8" font-family="Times,serif" font-size="14.00" fill="#000000">AppModule</text>
</g>
<!-- AboutComponent&#45;&gt;AppModule -->
<g id="edge1" class="edge">
<title>AboutComponent&#45;&gt;AppModule</title>
<path fill="none" stroke="#000000" d="M4274.3883,-122.1985C4274.3883,-146.3563 4274.3883,-186 4274.3883,-186 4274.3883,-186 2427.863,-186 2427.863,-186"/>
<polygon fill="#000000" stroke="#000000" points="2427.863,-182.5001 2417.863,-186 2427.863,-189.5001 2427.863,-182.5001"/>
</g>
<!-- AboutComponent&#45;&gt;AppModule -->
<g id="edge31" class="edge">
<title>AboutComponent&#45;&gt;AppModule</title>
<path fill="none" stroke="#000000" d="M4235.6117,-122.3802C4235.6117,-146.2785 4235.6117,-185 4235.6117,-185 4235.6117,-185 2427.8902,-185 2427.8902,-185"/>
<polygon fill="#000000" stroke="#000000" points="2427.8902,-181.5001 2417.8902,-185 2427.8901,-188.5001 2427.8902,-181.5001"/>
</g>
<!-- AppComponent -->
<g id="node2" class="node">
<title>AppComponent</title>
<polygon fill="#ffffb3" stroke="#000000" points="4178.9399,-122 4073.0601,-122 4073.0601,-86 4178.9399,-86 4178.9399,-122"/>
<text text-anchor="middle" x="4126" y="-99.8" font-family="Times,serif" font-size="14.00" fill="#000000">AppComponent</text>
</g>
<!-- AppComponent&#45;&gt;AppModule -->
<g id="edge2" class="edge">
<title>AppComponent&#45;&gt;AppModule</title>
<path fill="none" stroke="#000000" d="M4143.5732,-122.1532C4143.5732,-145.7566 4143.5732,-184 4143.5732,-184 4143.5732,-184 2427.9497,-184 2427.9497,-184"/>
<polygon fill="#000000" stroke="#000000" points="2427.9497,-180.5001 2417.9497,-184 2427.9496,-187.5001 2427.9497,-180.5001"/>
</g>
<!-- AppComponent&#45;&gt;AppModule -->
<g id="edge32" class="edge">
<title>AppComponent&#45;&gt;AppModule</title>
<path fill="none" stroke="#000000" d="M4108.4268,-122.3228C4108.4268,-145.6602 4108.4268,-183 4108.4268,-183 4108.4268,-183 2427.9659,-183 2427.9659,-183"/>
<polygon fill="#000000" stroke="#000000" points="2427.9659,-179.5001 2417.9659,-183 2427.9658,-186.5001 2427.9659,-179.5001"/>
</g>
<!-- ContactComponent -->
<g id="node3" class="node">
<title>ContactComponent</title>
<polygon fill="#ffffb3" stroke="#000000" points="4055.3795,-122 3930.6205,-122 3930.6205,-86 4055.3795,-86 4055.3795,-122"/>
<text text-anchor="middle" x="3993" y="-99.8" font-family="Times,serif" font-size="14.00" fill="#000000">ContactComponent</text>
</g>
<!-- ContactComponent&#45;&gt;AppModule -->
<g id="edge3" class="edge">
<title>ContactComponent&#45;&gt;AppModule</title>
<path fill="none" stroke="#000000" d="M4013.8132,-122.2479C4013.8132,-145.0179 4013.8132,-181 4013.8132,-181 4013.8132,-181 2427.7171,-181 2427.7171,-181"/>
<polygon fill="#000000" stroke="#000000" points="2427.7171,-177.5001 2417.7171,-181 2427.717,-184.5001 2427.7171,-177.5001"/>
</g>
<!-- ContactComponent&#45;&gt;AppModule -->
<g id="edge33" class="edge">
<title>ContactComponent&#45;&gt;AppModule</title>
<path fill="none" stroke="#000000" d="M3972.1868,-122.0109C3972.1868,-144.4852 3972.1868,-180 3972.1868,-180 3972.1868,-180 2427.8737,-180 2427.8737,-180"/>
<polygon fill="#000000" stroke="#000000" points="2427.8737,-176.5001 2417.8737,-180 2427.8736,-183.5001 2427.8737,-176.5001"/>
</g>
<!-- ContactFormComponent -->
<g id="node4" class="node">
<title>ContactFormComponent</title>
<polygon fill="#ffffb3" stroke="#000000" points="3912.7133,-122 3757.2867,-122 3757.2867,-86 3912.7133,-86 3912.7133,-122"/>
<text text-anchor="middle" x="3835" y="-99.8" font-family="Times,serif" font-size="14.00" fill="#000000">ContactFormComponent</text>
</g>
<!-- ContactFormComponent&#45;&gt;AppModule -->
<g id="edge4" class="edge">
<title>ContactFormComponent&#45;&gt;AppModule</title>
<path fill="none" stroke="#000000" d="M3809.1311,-122.2921C3809.1311,-144.2057 3809.1311,-178 3809.1311,-178 3809.1311,-178 2427.7292,-178 2427.7292,-178"/>
<polygon fill="#000000" stroke="#000000" points="2427.7292,-174.5001 2417.7292,-178 2427.7292,-181.5001 2427.7292,-174.5001"/>
</g>
<!-- ContactFormComponent&#45;&gt;AppModule -->
<g id="edge34" class="edge">
<title>ContactFormComponent&#45;&gt;AppModule</title>
<path fill="none" stroke="#000000" d="M3860.8689,-122.1554C3860.8689,-144.3519 3860.8689,-179 3860.8689,-179 3860.8689,-179 2428.0474,-179 2428.0474,-179"/>
<polygon fill="#000000" stroke="#000000" points="2428.0474,-175.5001 2418.0474,-179 2428.0473,-182.5001 2428.0474,-175.5001"/>
</g>
<!-- ContactMapComponent -->
<g id="node5" class="node">
<title>ContactMapComponent</title>
<polygon fill="#ffffb3" stroke="#000000" points="3739.0393,-122 3588.9607,-122 3588.9607,-86 3739.0393,-86 3739.0393,-122"/>
<text text-anchor="middle" x="3664" y="-99.8" font-family="Times,serif" font-size="14.00" fill="#000000">ContactMapComponent</text>
</g>
<!-- ContactMapComponent&#45;&gt;AppModule -->
<g id="edge5" class="edge">
<title>ContactMapComponent&#45;&gt;AppModule</title>
<path fill="none" stroke="#000000" d="M3689.0898,-122.1686C3689.0898,-143.498 3689.0898,-176 3689.0898,-176 3689.0898,-176 2427.8335,-176 2427.8335,-176"/>
<polygon fill="#000000" stroke="#000000" points="2427.8336,-172.5001 2417.8335,-176 2427.8335,-179.5001 2427.8336,-172.5001"/>
</g>
<!-- ContactMapComponent&#45;&gt;AppModule -->
<g id="edge35" class="edge">
<title>ContactMapComponent&#45;&gt;AppModule</title>
<path fill="none" stroke="#000000" d="M3638.9102,-122.2843C3638.9102,-143.3211 3638.9102,-175 3638.9102,-175 3638.9102,-175 2427.6596,-175 2427.6596,-175"/>
<polygon fill="#000000" stroke="#000000" points="2427.6596,-171.5001 2417.6596,-175 2427.6595,-178.5001 2427.6596,-171.5001"/>
</g>
<!-- EducationComponent -->
<g id="node6" class="node">
<title>EducationComponent</title>
<polygon fill="#ffffb3" stroke="#000000" points="3571.0954,-122 3432.9046,-122 3432.9046,-86 3571.0954,-86 3571.0954,-122"/>
<text text-anchor="middle" x="3502" y="-99.8" font-family="Times,serif" font-size="14.00" fill="#000000">EducationComponent</text>
</g>
<!-- EducationComponent&#45;&gt;AppModule -->
<g id="edge6" class="edge">
<title>EducationComponent&#45;&gt;AppModule</title>
<path fill="none" stroke="#000000" d="M3478.9841,-122.1289C3478.9841,-142.5724 3478.9841,-173 3478.9841,-173 3478.9841,-173 2427.8914,-173 2427.8914,-173"/>
<polygon fill="#000000" stroke="#000000" points="2427.8915,-169.5001 2417.8914,-173 2427.8914,-176.5001 2427.8915,-169.5001"/>
</g>
<!-- EducationComponent&#45;&gt;AppModule -->
<g id="edge36" class="edge">
<title>EducationComponent&#45;&gt;AppModule</title>
<path fill="none" stroke="#000000" d="M3525.0159,-122.0267C3525.0159,-142.7672 3525.0159,-174 3525.0159,-174 3525.0159,-174 2427.9142,-174 2427.9142,-174"/>
<polygon fill="#000000" stroke="#000000" points="2427.9142,-170.5001 2417.9142,-174 2427.9142,-177.5001 2427.9142,-170.5001"/>
</g>
<!-- ExperienceComponent -->
<g id="node7" class="node">
<title>ExperienceComponent</title>
<polygon fill="#ffffb3" stroke="#000000" points="3415.2949,-122 3270.7051,-122 3270.7051,-86 3415.2949,-86 3415.2949,-122"/>
<text text-anchor="middle" x="3343" y="-99.8" font-family="Times,serif" font-size="14.00" fill="#000000">ExperienceComponent</text>
</g>
<!-- ExperienceComponent&#45;&gt;AppModule -->
<g id="edge7" class="edge">
<title>ExperienceComponent&#45;&gt;AppModule</title>
<path fill="none" stroke="#000000" d="M3318.9509,-122.0348C3318.9509,-141.5762 3318.9509,-170 3318.9509,-170 3318.9509,-170 2427.7341,-170 2427.7341,-170"/>
<polygon fill="#000000" stroke="#000000" points="2427.7342,-166.5001 2417.7341,-170 2427.7341,-173.5001 2427.7342,-166.5001"/>
</g>
<!-- ExperienceComponent&#45;&gt;AppModule -->
<g id="edge37" class="edge">
<title>ExperienceComponent&#45;&gt;AppModule</title>
<path fill="none" stroke="#000000" d="M3367.0491,-122.308C3367.0491,-142.1455 3367.0491,-171 3367.0491,-171 3367.0491,-171 2427.9511,-171 2427.9511,-171"/>
<polygon fill="#000000" stroke="#000000" points="2427.9512,-167.5001 2417.9511,-171 2427.9511,-174.5001 2427.9512,-167.5001"/>
</g>
<!-- FooterComponent -->
<g id="node8" class="node">
<title>FooterComponent</title>
<polygon fill="#ffffb3" stroke="#000000" points="3252.8809,-122 3135.1191,-122 3135.1191,-86 3252.8809,-86 3252.8809,-122"/>
<text text-anchor="middle" x="3194" y="-99.8" font-family="Times,serif" font-size="14.00" fill="#000000">FooterComponent</text>
</g>
<!-- FooterComponent&#45;&gt;AppModule -->
<g id="edge8" class="edge">
<title>FooterComponent&#45;&gt;AppModule</title>
<path fill="none" stroke="#000000" d="M3213.6468,-122.1061C3213.6468,-141.3391 3213.6468,-169 3213.6468,-169 3213.6468,-169 2427.8256,-169 2427.8256,-169"/>
<polygon fill="#000000" stroke="#000000" points="2427.8257,-165.5001 2417.8256,-169 2427.8256,-172.5001 2427.8257,-165.5001"/>
</g>
<!-- FooterComponent&#45;&gt;AppModule -->
<g id="edge38" class="edge">
<title>FooterComponent&#45;&gt;AppModule</title>
<path fill="none" stroke="#000000" d="M3174.3532,-122.1686C3174.3532,-141.0898 3174.3532,-168 3174.3532,-168 3174.3532,-168 2427.7989,-168 2427.7989,-168"/>
<polygon fill="#000000" stroke="#000000" points="2427.7989,-164.5001 2417.7989,-168 2427.7988,-171.5001 2427.7989,-164.5001"/>
</g>
<!-- HeaderComponent -->
<g id="node9" class="node">
<title>HeaderComponent</title>
<polygon fill="#ffffb3" stroke="#000000" points="3116.7437,-122 2995.2563,-122 2995.2563,-86 3116.7437,-86 3116.7437,-122"/>
<text text-anchor="middle" x="3056" y="-99.8" font-family="Times,serif" font-size="14.00" fill="#000000">HeaderComponent</text>
</g>
<!-- HeaderComponent&#45;&gt;AppModule -->
<g id="edge9" class="edge">
<title>HeaderComponent&#45;&gt;AppModule</title>
<path fill="none" stroke="#000000" d="M3035.7094,-122.302C3035.7094,-140.2699 3035.7094,-165 3035.7094,-165 3035.7094,-165 2427.7683,-165 2427.7683,-165"/>
<polygon fill="#000000" stroke="#000000" points="2427.7683,-161.5001 2417.7683,-165 2427.7682,-168.5001 2427.7683,-161.5001"/>
</g>
<!-- HeaderComponent&#45;&gt;AppModule -->
<g id="edge39" class="edge">
<title>HeaderComponent&#45;&gt;AppModule</title>
<path fill="none" stroke="#000000" d="M3076.2906,-122.2667C3076.2906,-140.5552 3076.2906,-166 3076.2906,-166 3076.2906,-166 2427.7092,-166 2427.7092,-166"/>
<polygon fill="#000000" stroke="#000000" points="2427.7092,-162.5001 2417.7092,-166 2427.7091,-169.5001 2427.7092,-162.5001"/>
</g>
<!-- SkillsComponent -->
<g id="node10" class="node">
<title>SkillsComponent</title>
<polygon fill="#ffffb3" stroke="#000000" points="2977.7316,-122 2864.2684,-122 2864.2684,-86 2977.7316,-86 2977.7316,-122"/>
<text text-anchor="middle" x="2921" y="-99.8" font-family="Times,serif" font-size="14.00" fill="#000000">SkillsComponent</text>
</g>
<!-- SkillsComponent&#45;&gt;AppModule -->
<g id="edge10" class="edge">
<title>SkillsComponent&#45;&gt;AppModule</title>
<path fill="none" stroke="#000000" d="M2939.8719,-122.002C2939.8719,-139.6754 2939.8719,-164 2939.8719,-164 2939.8719,-164 2427.9214,-164 2427.9214,-164"/>
<polygon fill="#000000" stroke="#000000" points="2427.9214,-160.5001 2417.9214,-164 2427.9213,-167.5001 2427.9214,-160.5001"/>
</g>
<!-- SkillsComponent&#45;&gt;AppModule -->
<g id="edge40" class="edge">
<title>SkillsComponent&#45;&gt;AppModule</title>
<path fill="none" stroke="#000000" d="M2902.1281,-122.0225C2902.1281,-139.3734 2902.1281,-163 2902.1281,-163 2902.1281,-163 2427.7242,-163 2427.7242,-163"/>
<polygon fill="#000000" stroke="#000000" points="2427.7242,-159.5001 2417.7242,-163 2427.7241,-166.5001 2427.7242,-159.5001"/>
</g>
<!-- BadgeUrlPipe -->
<g id="node11" class="node">
<title>BadgeUrlPipe</title>
<polygon fill="#ffffb3" stroke="#000000" points="2846.8119,-122 2751.1881,-122 2751.1881,-86 2846.8119,-86 2846.8119,-122"/>
<text text-anchor="middle" x="2799" y="-99.8" font-family="Times,serif" font-size="14.00" fill="#000000">BadgeUrlPipe</text>
</g>
<!-- BadgeUrlPipe&#45;&gt;AppModule -->
<g id="edge11" class="edge">
<title>BadgeUrlPipe&#45;&gt;AppModule</title>
<path fill="none" stroke="#000000" d="M2783.1148,-122.027C2783.1148,-138.3976 2783.1148,-160 2783.1148,-160 2783.1148,-160 2428.035,-160 2428.035,-160"/>
<polygon fill="#000000" stroke="#000000" points="2428.0351,-156.5001 2418.035,-160 2428.035,-163.5001 2428.0351,-156.5001"/>
</g>
<!-- BadgeUrlPipe&#45;&gt;AppModule -->
<g id="edge41" class="edge">
<title>BadgeUrlPipe&#45;&gt;AppModule</title>
<path fill="none" stroke="#000000" d="M2814.8852,-122.0352C2814.8852,-138.7344 2814.8852,-161 2814.8852,-161 2814.8852,-161 2427.6849,-161 2427.6849,-161"/>
<polygon fill="#000000" stroke="#000000" points="2427.685,-157.5001 2417.6849,-161 2427.6849,-164.5001 2427.685,-157.5001"/>
</g>
<!-- MemberDatePipe -->
<g id="node12" class="node">
<title>MemberDatePipe</title>
<polygon fill="#ffffb3" stroke="#000000" points="2733.2395,-122 2618.7605,-122 2618.7605,-86 2733.2395,-86 2733.2395,-122"/>
<text text-anchor="middle" x="2676" y="-99.8" font-family="Times,serif" font-size="14.00" fill="#000000">MemberDatePipe</text>
</g>
<!-- MemberDatePipe&#45;&gt;AppModule -->
<g id="edge12" class="edge">
<title>MemberDatePipe&#45;&gt;AppModule</title>
<path fill="none" stroke="#000000" d="M2656.8768,-122.2819C2656.8768,-137.9478 2656.8768,-158 2656.8768,-158 2656.8768,-158 2427.7468,-158 2427.7468,-158"/>
<polygon fill="#000000" stroke="#000000" points="2427.7468,-154.5001 2417.7468,-158 2427.7468,-161.5001 2427.7468,-154.5001"/>
</g>
<!-- MemberDatePipe&#45;&gt;AppModule -->
<g id="edge42" class="edge">
<title>MemberDatePipe&#45;&gt;AppModule</title>
<path fill="none" stroke="#000000" d="M2695.1232,-122.0091C2695.1232,-138.0494 2695.1232,-159 2695.1232,-159 2695.1232,-159 2427.7198,-159 2427.7198,-159"/>
<polygon fill="#000000" stroke="#000000" points="2427.7198,-155.5001 2417.7198,-159 2427.7198,-162.5001 2427.7198,-155.5001"/>
</g>
<!-- ScorePipe -->
<g id="node13" class="node">
<title>ScorePipe</title>
<polygon fill="#ffffb3" stroke="#000000" points="2600.2606,-122 2527.7394,-122 2527.7394,-86 2600.2606,-86 2600.2606,-122"/>
<text text-anchor="middle" x="2564" y="-99.8" font-family="Times,serif" font-size="14.00" fill="#000000">ScorePipe</text>
</g>
<!-- ScorePipe&#45;&gt;AppModule -->
<g id="edge13" class="edge">
<title>ScorePipe&#45;&gt;AppModule</title>
<path fill="none" stroke="#000000" d="M2576.1267,-122.1871C2576.1267,-137.1824 2576.1267,-156 2576.1267,-156 2576.1267,-156 2427.9531,-156 2427.9531,-156"/>
<polygon fill="#000000" stroke="#000000" points="2427.9531,-152.5001 2417.9531,-156 2427.9531,-159.5001 2427.9531,-152.5001"/>
</g>
<!-- ScorePipe&#45;&gt;AppModule -->
<g id="edge43" class="edge">
<title>ScorePipe&#45;&gt;AppModule</title>
<path fill="none" stroke="#000000" d="M2551.8733,-122.1243C2551.8733,-136.7832 2551.8733,-155 2551.8733,-155 2551.8733,-155 2427.6795,-155 2427.6795,-155"/>
<polygon fill="#000000" stroke="#000000" points="2427.6796,-151.5001 2417.6795,-155 2427.6795,-158.5001 2427.6796,-151.5001"/>
</g>
<!-- TrimPipe -->
<g id="node14" class="node">
<title>TrimPipe</title>
<polygon fill="#ffffb3" stroke="#000000" points="2509.3823,-122 2440.6177,-122 2440.6177,-86 2509.3823,-86 2509.3823,-122"/>
<text text-anchor="middle" x="2475" y="-99.8" font-family="Times,serif" font-size="14.00" fill="#000000">TrimPipe</text>
</g>
<!-- TrimPipe&#45;&gt;AppModule -->
<g id="edge14" class="edge">
<title>TrimPipe&#45;&gt;AppModule</title>
<path fill="none" stroke="#000000" d="M2463.5196,-122.2458C2463.5196,-136.1772 2463.5196,-153 2463.5196,-153 2463.5196,-153 2427.7092,-153 2427.7092,-153"/>
<polygon fill="#000000" stroke="#000000" points="2427.7093,-149.5001 2417.7092,-153 2427.7092,-156.5001 2427.7093,-149.5001"/>
</g>
<!-- TrimPipe&#45;&gt;AppModule -->
<g id="edge44" class="edge">
<title>TrimPipe&#45;&gt;AppModule</title>
<path fill="none" stroke="#000000" d="M2486.4804,-122.0511C2486.4804,-136.373 2486.4804,-154 2486.4804,-154 2486.4804,-154 2427.7679,-154 2427.7679,-154"/>
<polygon fill="#000000" stroke="#000000" points="2427.7679,-150.5001 2417.7679,-154 2427.7679,-157.5001 2427.7679,-150.5001"/>
</g>
<!-- VideoUrlPipe -->
<g id="node15" class="node">
<title>VideoUrlPipe</title>
<polygon fill="#ffffb3" stroke="#000000" points="2422.7577,-122 2329.2423,-122 2329.2423,-86 2422.7577,-86 2422.7577,-122"/>
<text text-anchor="middle" x="2376" y="-99.8" font-family="Times,serif" font-size="14.00" fill="#000000">VideoUrlPipe</text>
</g>
<!-- VideoUrlPipe&#45;&gt;AppModule -->
<g id="edge15" class="edge">
<title>VideoUrlPipe&#45;&gt;AppModule</title>
<path fill="none" stroke="#000000" d="M2389.9427,-122.1061C2389.9427,-122.1061 2389.9427,-140.991 2389.9427,-140.991"/>
<polygon fill="#000000" stroke="#000000" points="2386.4428,-140.9909 2389.9427,-150.991 2393.4428,-140.991 2386.4428,-140.9909"/>
</g>
<!-- VideoUrlPipe&#45;&gt;AppModule -->
<g id="edge45" class="edge">
<title>VideoUrlPipe&#45;&gt;AppModule</title>
<path fill="none" stroke="#000000" d="M2362.0573,-122.1061C2362.0573,-122.1061 2362.0573,-140.991 2362.0573,-140.991"/>
<polygon fill="#000000" stroke="#000000" points="2358.5574,-140.9909 2362.0573,-150.991 2365.5574,-140.991 2358.5574,-140.9909"/>
</g>
<!-- AppComponent  -->
<g id="node22" class="node">
<title>AppComponent </title>
<polygon fill="#80b1d3" stroke="#000000" points="2430.439,-252 2321.561,-252 2321.561,-216 2430.439,-216 2430.439,-252"/>
<text text-anchor="middle" x="2376" y="-229.8" font-family="Times,serif" font-size="14.00" fill="#000000">AppComponent </text>
</g>
<!-- AppModule&#45;&gt;AppComponent  -->
<g id="edge21" class="edge">
<title>AppModule&#45;&gt;AppComponent </title>
<path fill="none" stroke="#000000" stroke-dasharray="1,5" d="M2389.9427,-187.1061C2389.9427,-187.1061 2389.9427,-205.991 2389.9427,-205.991"/>
<polygon fill="#000000" stroke="#000000" points="2386.4428,-205.9909 2389.9427,-215.991 2393.4428,-205.991 2386.4428,-205.9909"/>
</g>
<!-- AppModule&#45;&gt;AppComponent  -->
<g id="edge51" class="edge">
<title>AppModule&#45;&gt;AppComponent </title>
<path fill="none" stroke="#000000" stroke-dasharray="1,5" d="M2362.0573,-187.1061C2362.0573,-187.1061 2362.0573,-205.991 2362.0573,-205.991"/>
<polygon fill="#000000" stroke="#000000" points="2358.5574,-205.9909 2362.0573,-215.991 2365.5574,-205.991 2358.5574,-205.9909"/>
</g>
<!-- BrowserModule -->
<g id="node17" class="node">
<title>BrowserModule</title>
<polygon fill="#8dd3c7" stroke="#000000" points="2305.4734,-122 2302.4734,-126 2281.4734,-126 2278.4734,-122 2198.5266,-122 2198.5266,-86 2305.4734,-86 2305.4734,-122"/>
<text text-anchor="middle" x="2252" y="-99.8" font-family="Times,serif" font-size="14.00" fill="#000000">BrowserModule</text>
</g>
<!-- BrowserModule&#45;&gt;AppModule -->
<g id="edge16" class="edge">
<title>BrowserModule&#45;&gt;AppModule</title>
<path fill="none" stroke="#000000" d="M2234.1711,-122.0511C2234.1711,-136.373 2234.1711,-154 2234.1711,-154 2234.1711,-154 2324.2138,-154 2324.2138,-154"/>
<polygon fill="#000000" stroke="#000000" points="2324.2138,-157.5001 2334.2138,-154 2324.2137,-150.5001 2324.2138,-157.5001"/>
</g>
<!-- BrowserModule&#45;&gt;AppModule -->
<g id="edge46" class="edge">
<title>BrowserModule&#45;&gt;AppModule</title>
<path fill="none" stroke="#000000" d="M2269.8289,-122.2458C2269.8289,-136.1772 2269.8289,-153 2269.8289,-153 2269.8289,-153 2324.0384,-153 2324.0384,-153"/>
<polygon fill="#000000" stroke="#000000" points="2324.0384,-156.5001 2334.0384,-153 2324.0383,-149.5001 2324.0384,-156.5001"/>
</g>
<!-- CommonModule -->
<g id="node18" class="node">
<title>CommonModule</title>
<polygon fill="#8dd3c7" stroke="#000000" points="2180.6681,-122 2177.6681,-126 2156.6681,-126 2153.6681,-122 2069.3319,-122 2069.3319,-86 2180.6681,-86 2180.6681,-122"/>
<text text-anchor="middle" x="2125" y="-99.8" font-family="Times,serif" font-size="14.00" fill="#000000">CommonModule</text>
</g>
<!-- CommonModule&#45;&gt;AppModule -->
<g id="edge17" class="edge">
<title>CommonModule&#45;&gt;AppModule</title>
<path fill="none" stroke="#000000" d="M2143.6113,-122.1243C2143.6113,-136.7832 2143.6113,-155 2143.6113,-155 2143.6113,-155 2324.1852,-155 2324.1852,-155"/>
<polygon fill="#000000" stroke="#000000" points="2324.1852,-158.5001 2334.1852,-155 2324.1851,-151.5001 2324.1852,-158.5001"/>
</g>
<!-- CommonModule&#45;&gt;AppModule -->
<g id="edge47" class="edge">
<title>CommonModule&#45;&gt;AppModule</title>
<path fill="none" stroke="#000000" d="M2106.3887,-122.1871C2106.3887,-137.1824 2106.3887,-156 2106.3887,-156 2106.3887,-156 2324.1691,-156 2324.1691,-156"/>
<polygon fill="#000000" stroke="#000000" points="2324.1691,-159.5001 2334.1691,-156 2324.169,-152.5001 2324.1691,-159.5001"/>
</g>
<!-- FormsModule -->
<g id="node19" class="node">
<title>FormsModule</title>
<polygon fill="#8dd3c7" stroke="#000000" points="2051.8288,-122 2048.8288,-126 2027.8288,-126 2024.8288,-122 1956.1712,-122 1956.1712,-86 2051.8288,-86 2051.8288,-122"/>
<text text-anchor="middle" x="2004" y="-99.8" font-family="Times,serif" font-size="14.00" fill="#000000">FormsModule</text>
</g>
<!-- FormsModule&#45;&gt;AppModule -->
<g id="edge18" class="edge">
<title>FormsModule&#45;&gt;AppModule</title>
<path fill="none" stroke="#000000" d="M1988.112,-122.0091C1988.112,-138.0494 1988.112,-159 1988.112,-159 1988.112,-159 2324.1206,-159 2324.1206,-159"/>
<polygon fill="#000000" stroke="#000000" points="2324.1207,-162.5001 2334.1206,-159 2324.1206,-155.5001 2324.1207,-162.5001"/>
</g>
<!-- FormsModule&#45;&gt;AppModule -->
<g id="edge48" class="edge">
<title>FormsModule&#45;&gt;AppModule</title>
<path fill="none" stroke="#000000" d="M2019.888,-122.2819C2019.888,-137.9478 2019.888,-158 2019.888,-158 2019.888,-158 2324.1023,-158 2324.1023,-158"/>
<polygon fill="#000000" stroke="#000000" points="2324.1023,-161.5001 2334.1023,-158 2324.1022,-154.5001 2324.1023,-161.5001"/>
</g>
<!-- HttpClientModule -->
<g id="node20" class="node">
<title>HttpClientModule</title>
<polygon fill="#8dd3c7" stroke="#000000" points="1938.1611,-122 1935.1611,-126 1914.1611,-126 1911.1611,-122 1819.8389,-122 1819.8389,-86 1938.1611,-86 1938.1611,-122"/>
<text text-anchor="middle" x="1879" y="-99.8" font-family="Times,serif" font-size="14.00" fill="#000000">HttpClientModule</text>
</g>
<!-- HttpClientModule&#45;&gt;AppModule -->
<g id="edge19" class="edge">
<title>HttpClientModule&#45;&gt;AppModule</title>
<path fill="none" stroke="#000000" d="M1898.7768,-122.027C1898.7768,-138.3976 1898.7768,-160 1898.7768,-160 1898.7768,-160 2324.0679,-160 2324.0679,-160"/>
<polygon fill="#000000" stroke="#000000" points="2324.0679,-163.5001 2334.0679,-160 2324.0678,-156.5001 2324.0679,-163.5001"/>
</g>
<!-- HttpClientModule&#45;&gt;AppModule -->
<g id="edge49" class="edge">
<title>HttpClientModule&#45;&gt;AppModule</title>
<path fill="none" stroke="#000000" d="M1859.2232,-122.0352C1859.2232,-138.7344 1859.2232,-161 1859.2232,-161 1859.2232,-161 2324.1477,-161 2324.1477,-161"/>
<polygon fill="#000000" stroke="#000000" points="2324.1478,-164.5001 2334.1477,-161 2324.1477,-157.5001 2324.1478,-164.5001"/>
</g>
<!-- ReactiveFormsModule -->
<g id="node21" class="node">
<title>ReactiveFormsModule</title>
<polygon fill="#8dd3c7" stroke="#000000" points="1802.3047,-122 1799.3047,-126 1778.3047,-126 1775.3047,-122 1657.6953,-122 1657.6953,-86 1802.3047,-86 1802.3047,-122"/>
<text text-anchor="middle" x="1730" y="-99.8" font-family="Times,serif" font-size="14.00" fill="#000000">ReactiveFormsModule</text>
</g>
<!-- ReactiveFormsModule&#45;&gt;AppModule -->
<g id="edge20" class="edge">
<title>ReactiveFormsModule&#45;&gt;AppModule</title>
<path fill="none" stroke="#000000" d="M1705.9493,-122.002C1705.9493,-139.6754 1705.9493,-164 1705.9493,-164 1705.9493,-164 2324.3385,-164 2324.3385,-164"/>
<polygon fill="#000000" stroke="#000000" points="2324.3385,-167.5001 2334.3385,-164 2324.3385,-160.5001 2324.3385,-167.5001"/>
</g>
<!-- ReactiveFormsModule&#45;&gt;AppModule -->
<g id="edge50" class="edge">
<title>ReactiveFormsModule&#45;&gt;AppModule</title>
<path fill="none" stroke="#000000" d="M1754.0507,-122.0225C1754.0507,-139.3734 1754.0507,-163 1754.0507,-163 1754.0507,-163 2324.2264,-163 2324.2264,-163"/>
<polygon fill="#000000" stroke="#000000" points="2324.2264,-166.5001 2334.2264,-163 2324.2264,-159.5001 2324.2264,-166.5001"/>
</g>
<!-- { provide: APP_BASE_HREF, useValue: &#39;/&#39; } -->
<g id="node23" class="node">
<title>{ provide: APP_BASE_HREF, useValue: &#39;/&#39; }</title>
<ellipse fill="#fdb462" stroke="#000000" cx="1443" cy="-104" rx="191.343" ry="18"/>
<text text-anchor="middle" x="1443" y="-99.8" font-family="Times,serif" font-size="14.00" fill="#000000">{ provide: APP_BASE_HREF, useValue: &#39;/&#39; }</text>
</g>
<!-- { provide: APP_BASE_HREF, useValue: &#39;/&#39; }&#45;&gt;AppModule -->
<g id="edge22" class="edge">
<title>{ provide: APP_BASE_HREF, useValue: &#39;/&#39; }&#45;&gt;AppModule</title>
<path fill="none" stroke="#000000" d="M1379.1928,-121.2705C1379.1928,-139.6158 1379.1928,-166 1379.1928,-166 1379.1928,-166 2324.1219,-166 2324.1219,-166"/>
<polygon fill="#000000" stroke="#000000" points="2324.1219,-169.5001 2334.1219,-166 2324.1218,-162.5001 2324.1219,-169.5001"/>
</g>
<!-- { provide: APP_BASE_HREF, useValue: &#39;/&#39; }&#45;&gt;AppModule -->
<g id="edge52" class="edge">
<title>{ provide: APP_BASE_HREF, useValue: &#39;/&#39; }&#45;&gt;AppModule</title>
<path fill="none" stroke="#000000" d="M1506.8072,-120.9919C1506.8072,-139.0413 1506.8072,-165 1506.8072,-165 1506.8072,-165 2324.077,-165 2324.077,-165"/>
<polygon fill="#000000" stroke="#000000" points="2324.0771,-168.5001 2334.077,-165 2324.077,-161.5001 2324.0771,-168.5001"/>
</g>
<!-- FormBuilder -->
<g id="node24" class="node">
<title>FormBuilder</title>
<ellipse fill="#fdb462" stroke="#000000" cx="1173" cy="-104" rx="60.8525" ry="18"/>
<text text-anchor="middle" x="1173" y="-99.8" font-family="Times,serif" font-size="14.00" fill="#000000">FormBuilder</text>
</g>
<!-- FormBuilder&#45;&gt;AppModule -->
<g id="edge23" class="edge">
<title>FormBuilder&#45;&gt;AppModule</title>
<path fill="none" stroke="#000000" d="M1152.6913,-121.078C1152.6913,-140.3364 1152.6913,-169 1152.6913,-169 1152.6913,-169 2324.2448,-169 2324.2448,-169"/>
<polygon fill="#000000" stroke="#000000" points="2324.2449,-172.5001 2334.2448,-169 2324.2448,-165.5001 2324.2449,-172.5001"/>
</g>
<!-- FormBuilder&#45;&gt;AppModule -->
<g id="edge53" class="edge">
<title>FormBuilder&#45;&gt;AppModule</title>
<path fill="none" stroke="#000000" d="M1193.3087,-121.1508C1193.3087,-140.1084 1193.3087,-168 1193.3087,-168 1193.3087,-168 2324.2548,-168 2324.2548,-168"/>
<polygon fill="#000000" stroke="#000000" points="2324.2548,-171.5001 2334.2548,-168 2324.2547,-164.5001 2324.2548,-171.5001"/>
</g>
<!-- AppService -->
<g id="node25" class="node">
<title>AppService</title>
<ellipse fill="#fdb462" stroke="#000000" cx="1037" cy="-104" rx="56.7406" ry="18"/>
<text text-anchor="middle" x="1037" y="-99.8" font-family="Times,serif" font-size="14.00" fill="#000000">AppService</text>
</g>
<!-- AppService&#45;&gt;AppModule -->
<g id="edge24" class="edge">
<title>AppService&#45;&gt;AppModule</title>
<path fill="none" stroke="#000000" d="M1018.1266,-121.2542C1018.1266,-141.1058 1018.1266,-171 1018.1266,-171 1018.1266,-171 2324.2471,-171 2324.2471,-171"/>
<polygon fill="#000000" stroke="#000000" points="2324.2471,-174.5001 2334.2471,-171 2324.2471,-167.5001 2324.2471,-174.5001"/>
</g>
<!-- AppService&#45;&gt;AppModule -->
<g id="edge54" class="edge">
<title>AppService&#45;&gt;AppModule</title>
<path fill="none" stroke="#000000" d="M1055.8734,-120.9966C1055.8734,-140.552 1055.8734,-170 1055.8734,-170 1055.8734,-170 2324.3109,-170 2324.3109,-170"/>
<polygon fill="#000000" stroke="#000000" points="2324.3109,-173.5001 2334.3109,-170 2324.3108,-166.5001 2324.3109,-173.5001"/>
</g>
<!-- ContactService -->
<g id="node26" class="node">
<title>ContactService</title>
<ellipse fill="#fdb462" stroke="#000000" cx="892" cy="-104" rx="70.0596" ry="18"/>
<text text-anchor="middle" x="892" y="-99.8" font-family="Times,serif" font-size="14.00" fill="#000000">ContactService</text>
</g>
<!-- ContactService&#45;&gt;AppModule -->
<g id="edge25" class="edge">
<title>ContactService&#45;&gt;AppModule</title>
<path fill="none" stroke="#000000" d="M868.6567,-121.3034C868.6567,-142.0324 868.6567,-174 868.6567,-174 868.6567,-174 2324.1118,-174 2324.1118,-174"/>
<polygon fill="#000000" stroke="#000000" points="2324.1118,-177.5001 2334.1118,-174 2324.1118,-170.5001 2324.1118,-177.5001"/>
</g>
<!-- ContactService&#45;&gt;AppModule -->
<g id="edge55" class="edge">
<title>ContactService&#45;&gt;AppModule</title>
<path fill="none" stroke="#000000" d="M915.3433,-121.0562C915.3433,-141.4891 915.3433,-173 915.3433,-173 915.3433,-173 2324.2503,-173 2324.2503,-173"/>
<polygon fill="#000000" stroke="#000000" points="2324.2503,-176.5001 2334.2503,-173 2324.2502,-169.5001 2324.2503,-176.5001"/>
</g>
<!-- EducationService -->
<g id="node27" class="node">
<title>EducationService</title>
<ellipse fill="#fdb462" stroke="#000000" cx="725" cy="-104" rx="79.2922" ry="18"/>
<text text-anchor="middle" x="725" y="-99.8" font-family="Times,serif" font-size="14.00" fill="#000000">EducationService</text>
</g>
<!-- EducationService&#45;&gt;AppModule -->
<g id="edge26" class="edge">
<title>EducationService&#45;&gt;AppModule</title>
<path fill="none" stroke="#000000" d="M751.382,-121.1871C751.382,-142.1998 751.382,-175 751.382,-175 751.382,-175 2324.2081,-175 2324.2081,-175"/>
<polygon fill="#000000" stroke="#000000" points="2324.2081,-178.5001 2334.2081,-175 2324.208,-171.5001 2324.2081,-178.5001"/>
</g>
<!-- EducationService&#45;&gt;AppModule -->
<g id="edge56" class="edge">
<title>EducationService&#45;&gt;AppModule</title>
<path fill="none" stroke="#000000" d="M698.618,-121.063C698.618,-142.3544 698.618,-176 698.618,-176 698.618,-176 2324.1179,-176 2324.1179,-176"/>
<polygon fill="#000000" stroke="#000000" points="2324.1179,-179.5001 2334.1179,-176 2324.1179,-172.5001 2324.1179,-179.5001"/>
</g>
<!-- ExperienceService -->
<g id="node28" class="node">
<title>ExperienceService</title>
<ellipse fill="#fdb462" stroke="#000000" cx="544" cy="-104" rx="83.3442" ry="18"/>
<text text-anchor="middle" x="544" y="-99.8" font-family="Times,serif" font-size="14.00" fill="#000000">ExperienceService</text>
</g>
<!-- ExperienceService&#45;&gt;AppModule -->
<g id="edge27" class="edge">
<title>ExperienceService&#45;&gt;AppModule</title>
<path fill="none" stroke="#000000" d="M571.8074,-121.1631C571.8074,-143.0234 571.8074,-178 571.8074,-178 571.8074,-178 2324.0584,-178 2324.0584,-178"/>
<polygon fill="#000000" stroke="#000000" points="2324.0584,-181.5001 2334.0584,-178 2324.0583,-174.5001 2324.0584,-181.5001"/>
</g>
<!-- ExperienceService&#45;&gt;AppModule -->
<g id="edge57" class="edge">
<title>ExperienceService&#45;&gt;AppModule</title>
<path fill="none" stroke="#000000" d="M516.1926,-121.0187C516.1926,-143.1468 516.1926,-179 516.1926,-179 516.1926,-179 2324.1054,-179 2324.1054,-179"/>
<polygon fill="#000000" stroke="#000000" points="2324.1055,-182.5001 2334.1054,-179 2324.1054,-175.5001 2324.1055,-182.5001"/>
</g>
<!-- FooterService -->
<g id="node29" class="node">
<title>FooterService</title>
<ellipse fill="#fdb462" stroke="#000000" cx="377" cy="-104" rx="65.4053" ry="18"/>
<text text-anchor="middle" x="377" y="-99.8" font-family="Times,serif" font-size="14.00" fill="#000000">FooterService</text>
</g>
<!-- FooterService&#45;&gt;AppModule -->
<g id="edge28" class="edge">
<title>FooterService&#45;&gt;AppModule</title>
<path fill="none" stroke="#000000" d="M398.7341,-121.2456C398.7341,-143.6688 398.7341,-180 398.7341,-180 398.7341,-180 2324.2458,-180 2324.2458,-180"/>
<polygon fill="#000000" stroke="#000000" points="2324.2458,-183.5001 2334.2458,-180 2324.2458,-176.5001 2324.2458,-183.5001"/>
</g>
<!-- FooterService&#45;&gt;AppModule -->
<g id="edge58" class="edge">
<title>FooterService&#45;&gt;AppModule</title>
<path fill="none" stroke="#000000" d="M355.2659,-121.0888C355.2659,-143.7736 355.2659,-181 355.2659,-181 355.2659,-181 2324.2579,-181 2324.2579,-181"/>
<polygon fill="#000000" stroke="#000000" points="2324.258,-184.5001 2334.2579,-181 2324.2579,-177.5001 2324.258,-184.5001"/>
</g>
<!-- HeaderService -->
<g id="node30" class="node">
<title>HeaderService</title>
<ellipse fill="#fdb462" stroke="#000000" cx="226" cy="-104" rx="67.7336" ry="18"/>
<text text-anchor="middle" x="226" y="-99.8" font-family="Times,serif" font-size="14.00" fill="#000000">HeaderService</text>
</g>
<!-- HeaderService&#45;&gt;AppModule -->
<g id="edge29" class="edge">
<title>HeaderService&#45;&gt;AppModule</title>
<path fill="none" stroke="#000000" d="M248.6222,-121.1418C248.6222,-144.3764 248.6222,-183 248.6222,-183 248.6222,-183 2323.983,-183 2323.983,-183"/>
<polygon fill="#000000" stroke="#000000" points="2323.9831,-186.5001 2333.983,-183 2323.983,-179.5001 2323.9831,-186.5001"/>
</g>
<!-- HeaderService&#45;&gt;AppModule -->
<g id="edge59" class="edge">
<title>HeaderService&#45;&gt;AppModule</title>
<path fill="none" stroke="#000000" d="M203.3778,-121.3588C203.3778,-144.8875 203.3778,-184 203.3778,-184 203.3778,-184 2324.0584,-184 2324.0584,-184"/>
<polygon fill="#000000" stroke="#000000" points="2324.0585,-187.5001 2334.0584,-184 2324.0584,-180.5001 2324.0585,-187.5001"/>
</g>
<!-- SkillService -->
<g id="node31" class="node">
<title>SkillService</title>
<ellipse fill="#fdb462" stroke="#000000" cx="82" cy="-104" rx="58.4803" ry="18"/>
<text text-anchor="middle" x="82" y="-99.8" font-family="Times,serif" font-size="14.00" fill="#000000">SkillService</text>
</g>
<!-- SkillService&#45;&gt;AppModule -->
<g id="edge30" class="edge">
<title>SkillService&#45;&gt;AppModule</title>
<path fill="none" stroke="#000000" d="M101.4132,-121.178C101.4132,-144.9548 101.4132,-185 101.4132,-185 101.4132,-185 2324.0863,-185 2324.0863,-185"/>
<polygon fill="#000000" stroke="#000000" points="2324.0864,-188.5001 2334.0863,-185 2324.0863,-181.5001 2324.0864,-188.5001"/>
</g>
<!-- SkillService&#45;&gt;AppModule -->
<g id="edge60" class="edge">
<title>SkillService&#45;&gt;AppModule</title>
<path fill="none" stroke="#000000" d="M62.5868,-120.9905C62.5868,-145.0088 62.5868,-186 62.5868,-186 62.5868,-186 2323.8716,-186 2323.8716,-186"/>
<polygon fill="#000000" stroke="#000000" points="2323.8716,-189.5001 2333.8716,-186 2323.8715,-182.5001 2323.8716,-189.5001"/>
</g>
</g>
</svg>
