<?xml version="1.0" encoding="UTF-8" standalone="no"?>
<!DOCTYPE svg PUBLIC "-//W3C//DTD SVG 1.1//EN"
 "http://www.w3.org/Graphics/SVG/1.1/DTD/svg11.dtd">
<!-- Generated by graphviz version 2.40.1 (20161225.0304)
 -->
<!-- Title: dependencies Pages: 1 -->
<svg width="2812pt" height="284pt"
 viewBox="0.00 0.00 2812.00 284.00" xmlns="http://www.w3.org/2000/svg" xmlns:xlink="http://www.w3.org/1999/xlink">
<g id="graph0" class="graph" transform="scale(1 1) rotate(0) translate(4 280)">
<title>dependencies</title>
<polygon fill="#ffffff" stroke="transparent" points="-4,4 -4,-280 2808,-280 2808,4 -4,4"/>
<text text-anchor="start" x="1381.0091" y="-42.4" font-family="sans-serif" font-weight="bold" font-size="14.00" fill="#000000">Legend</text>
<polygon fill="#ffffb3" stroke="transparent" points="1168,-10 1168,-30 1188,-30 1188,-10 1168,-10"/>
<text text-anchor="start" x="1191.629" y="-15.4" font-family="sans-serif" font-size="14.00" fill="#000000"> &#160;Declarations</text>
<polygon fill="#8dd3c7" stroke="transparent" points="1281,-10 1281,-30 1301,-30 1301,-10 1281,-10"/>
<text text-anchor="start" x="1304.7251" y="-15.4" font-family="sans-serif" font-size="14.00" fill="#000000"> &#160;Module</text>
<polygon fill="#80b1d3" stroke="transparent" points="1367,-10 1367,-30 1387,-30 1387,-10 1367,-10"/>
<text text-anchor="start" x="1390.7812" y="-15.4" font-family="sans-serif" font-size="14.00" fill="#000000"> &#160;Bootstrap</text>
<polygon fill="#fdb462" stroke="transparent" points="1464,-10 1464,-30 1484,-30 1484,-10 1464,-10"/>
<text text-anchor="start" x="1487.6732" y="-15.4" font-family="sans-serif" font-size="14.00" fill="#000000"> &#160;Providers</text>
<polygon fill="#fb8072" stroke="transparent" points="1560,-10 1560,-30 1580,-30 1580,-10 1560,-10"/>
<text text-anchor="start" x="1583.7258" y="-15.4" font-family="sans-serif" font-size="14.00" fill="#000000"> &#160;Exports</text>
<g id="clust1" class="cluster">
<title>cluster_AppModule</title>
<polygon fill="none" stroke="#000000" stroke-dasharray="1,5" points="8,-70 8,-268 2796,-268 2796,-70 8,-70"/>
</g>
<g id="clust2" class="cluster">
<title>cluster_AppModule_declarations</title>
<polygon fill="none" stroke="#000000" points="658,-78 658,-130 2788,-130 2788,-78 658,-78"/>
</g>
<g id="clust21" class="cluster">
<title>cluster_AppModule_bootstrap</title>
<polygon fill="none" stroke="#000000" points="1263,-208 1263,-260 1387,-260 1387,-208 1263,-208"/>
</g>
<g id="clust22" class="cluster">
<title>cluster_AppModule_providers</title>
<polygon fill="none" stroke="#000000" points="16,-78 16,-130 650,-130 650,-78 16,-78"/>
</g>
<!-- AboutComponent -->
<g id="node1" class="node">
<title>AboutComponent</title>
<polygon fill="#ffffb3" stroke="#000000" points="2780.3301,-122 2663.6699,-122 2663.6699,-86 2780.3301,-86 2780.3301,-122"/>
<text text-anchor="middle" x="2722" y="-99.8" font-family="Times,serif" font-size="14.00" fill="#000000">AboutComponent</text>
</g>
<!-- AppModule -->
<g id="node17" class="node">
<title>AppModule</title>
<polygon fill="#8dd3c7" stroke="#000000" points="1366.6571,-187 1363.6571,-191 1342.6571,-191 1339.6571,-187 1283.3429,-187 1283.3429,-151 1366.6571,-151 1366.6571,-187"/>
<text text-anchor="middle" x="1325" y="-164.8" font-family="Times,serif" font-size="14.00" fill="#000000">AppModule</text>
</g>
<!-- AboutComponent&#45;&gt;AppModule -->
<g id="edge1" class="edge">
<title>AboutComponent&#45;&gt;AppModule</title>
<path fill="none" stroke="#000000" d="M2722,-122.1532C2722,-145.7566 2722,-184 2722,-184 2722,-184 1376.8094,-184 1376.8094,-184"/>
<polygon fill="#000000" stroke="#000000" points="1376.8095,-180.5001 1366.8094,-184 1376.8094,-187.5001 1376.8095,-180.5001"/>
</g>
<!-- AppComponent -->
<g id="node2" class="node">
<title>AppComponent</title>
<polygon fill="#ffffb3" stroke="#000000" points="2645.9399,-122 2540.0601,-122 2540.0601,-86 2645.9399,-86 2645.9399,-122"/>
<text text-anchor="middle" x="2593" y="-99.8" font-family="Times,serif" font-size="14.00" fill="#000000">AppComponent</text>
</g>
<!-- AppComponent&#45;&gt;AppModule -->
<g id="edge2" class="edge">
<title>AppComponent&#45;&gt;AppModule</title>
<path fill="none" stroke="#000000" d="M2593,-122.0109C2593,-144.4852 2593,-180 2593,-180 2593,-180 1376.8275,-180 1376.8275,-180"/>
<polygon fill="#000000" stroke="#000000" points="1376.8275,-176.5001 1366.8275,-180 1376.8274,-183.5001 1376.8275,-176.5001"/>
</g>
<!-- ContactComponent -->
<g id="node3" class="node">
<title>ContactComponent</title>
<polygon fill="#ffffb3" stroke="#000000" points="2522.3795,-122 2397.6205,-122 2397.6205,-86 2522.3795,-86 2522.3795,-122"/>
<text text-anchor="middle" x="2460" y="-99.8" font-family="Times,serif" font-size="14.00" fill="#000000">ContactComponent</text>
</g>
<!-- ContactComponent&#45;&gt;AppModule -->
<g id="edge3" class="edge">
<title>ContactComponent&#45;&gt;AppModule</title>
<path fill="none" stroke="#000000" d="M2460,-122.0449C2460,-143.6623 2460,-177 2460,-177 2460,-177 1376.7413,-177 1376.7413,-177"/>
<polygon fill="#000000" stroke="#000000" points="1376.7414,-173.5001 1366.7413,-177 1376.7413,-180.5001 1376.7414,-173.5001"/>
</g>
<!-- ContactFormComponent -->
<g id="node4" class="node">
<title>ContactFormComponent</title>
<polygon fill="#ffffb3" stroke="#000000" points="2379.7133,-122 2224.2867,-122 2224.2867,-86 2379.7133,-86 2379.7133,-122"/>
<text text-anchor="middle" x="2302" y="-99.8" font-family="Times,serif" font-size="14.00" fill="#000000">ContactFormComponent</text>
</g>
<!-- ContactFormComponent&#45;&gt;AppModule -->
<g id="edge4" class="edge">
<title>ContactFormComponent&#45;&gt;AppModule</title>
<path fill="none" stroke="#000000" d="M2302,-122.1289C2302,-142.5724 2302,-173 2302,-173 2302,-173 1376.6679,-173 1376.6679,-173"/>
<polygon fill="#000000" stroke="#000000" points="1376.668,-169.5001 1366.6679,-173 1376.6679,-176.5001 1376.668,-169.5001"/>
</g>
<!-- TravelComponent -->
<g id="node5" class="node">
<title>TravelComponent</title>
<polygon fill="#ffffb3" stroke="#000000" points="2205.8655,-122 2088.1345,-122 2088.1345,-86 2205.8655,-86 2205.8655,-122"/>
<text text-anchor="middle" x="2147" y="-99.8" font-family="Times,serif" font-size="14.00" fill="#000000">TravelComponent</text>
</g>
<!-- TravelComponent&#45;&gt;AppModule -->
<g id="edge5" class="edge">
<title>TravelComponent&#45;&gt;AppModule</title>
<path fill="none" stroke="#000000" d="M2147,-122.1061C2147,-141.3391 2147,-169 2147,-169 2147,-169 1376.8932,-169 1376.8932,-169"/>
<polygon fill="#000000" stroke="#000000" points="1376.8932,-165.5001 1366.8932,-169 1376.8932,-172.5001 1376.8932,-165.5001"/>
</g>
<!-- TravelMapComponent -->
<g id="node6" class="node">
<title>TravelMapComponent</title>
<polygon fill="#ffffb3" stroke="#000000" points="2069.5254,-122 1926.4746,-122 1926.4746,-86 2069.5254,-86 2069.5254,-122"/>
<text text-anchor="middle" x="1998" y="-99.8" font-family="Times,serif" font-size="14.00" fill="#000000">TravelMapComponent</text>
</g>
<!-- TravelMapComponent&#45;&gt;AppModule -->
<g id="edge6" class="edge">
<title>TravelMapComponent&#45;&gt;AppModule</title>
<path fill="none" stroke="#000000" d="M1998,-122.2667C1998,-140.5552 1998,-166 1998,-166 1998,-166 1376.8449,-166 1376.8449,-166"/>
<polygon fill="#000000" stroke="#000000" points="1376.8449,-162.5001 1366.8449,-166 1376.8449,-169.5001 1376.8449,-162.5001"/>
</g>
<!-- EducationComponent -->
<g id="node7" class="node">
<title>EducationComponent</title>
<polygon fill="#ffffb3" stroke="#000000" points="1908.0954,-122 1769.9046,-122 1769.9046,-86 1908.0954,-86 1908.0954,-122"/>
<text text-anchor="middle" x="1839" y="-99.8" font-family="Times,serif" font-size="14.00" fill="#000000">EducationComponent</text>
</g>
<!-- EducationComponent&#45;&gt;AppModule -->
<g id="edge7" class="edge">
<title>EducationComponent&#45;&gt;AppModule</title>
<path fill="none" stroke="#000000" d="M1839,-122.0336C1839,-139.0597 1839,-162 1839,-162 1839,-162 1377.0628,-162 1377.0628,-162"/>
<polygon fill="#000000" stroke="#000000" points="1377.0628,-158.5001 1367.0628,-162 1377.0627,-165.5001 1377.0628,-158.5001"/>
</g>
<!-- ExperienceComponent -->
<g id="node8" class="node">
<title>ExperienceComponent</title>
<polygon fill="#ffffb3" stroke="#000000" points="1752.2949,-122 1607.7051,-122 1607.7051,-86 1752.2949,-86 1752.2949,-122"/>
<text text-anchor="middle" x="1680" y="-99.8" font-family="Times,serif" font-size="14.00" fill="#000000">ExperienceComponent</text>
</g>
<!-- ExperienceComponent&#45;&gt;AppModule -->
<g id="edge8" class="edge">
<title>ExperienceComponent&#45;&gt;AppModule</title>
<path fill="none" stroke="#000000" d="M1680,-122.0091C1680,-138.0494 1680,-159 1680,-159 1680,-159 1376.7669,-159 1376.7669,-159"/>
<polygon fill="#000000" stroke="#000000" points="1376.767,-155.5001 1366.7669,-159 1376.7669,-162.5001 1376.767,-155.5001"/>
</g>
<!-- FooterComponent -->
<g id="node9" class="node">
<title>FooterComponent</title>
<polygon fill="#ffffb3" stroke="#000000" points="1589.8809,-122 1472.1191,-122 1472.1191,-86 1589.8809,-86 1589.8809,-122"/>
<text text-anchor="middle" x="1531" y="-99.8" font-family="Times,serif" font-size="14.00" fill="#000000">FooterComponent</text>
</g>
<!-- FooterComponent&#45;&gt;AppModule -->
<g id="edge9" class="edge">
<title>FooterComponent&#45;&gt;AppModule</title>
<path fill="none" stroke="#000000" d="M1531,-122.1243C1531,-136.7832 1531,-155 1531,-155 1531,-155 1376.6872,-155 1376.6872,-155"/>
<polygon fill="#000000" stroke="#000000" points="1376.6872,-151.5001 1366.6872,-155 1376.6871,-158.5001 1376.6872,-151.5001"/>
</g>
<!-- HeaderComponent -->
<g id="node10" class="node">
<title>HeaderComponent</title>
<polygon fill="#ffffb3" stroke="#000000" points="1453.7437,-122 1332.2563,-122 1332.2563,-86 1453.7437,-86 1453.7437,-122"/>
<text text-anchor="middle" x="1393" y="-99.8" font-family="Times,serif" font-size="14.00" fill="#000000">HeaderComponent</text>
</g>
<!-- HeaderComponent&#45;&gt;AppModule -->
<g id="edge10" class="edge">
<title>HeaderComponent&#45;&gt;AppModule</title>
<path fill="none" stroke="#000000" d="M1349.4783,-122.1061C1349.4783,-122.1061 1349.4783,-140.991 1349.4783,-140.991"/>
<polygon fill="#000000" stroke="#000000" points="1345.9783,-140.9909 1349.4783,-150.991 1352.9783,-140.991 1345.9783,-140.9909"/>
</g>
<!-- SkillsComponent -->
<g id="node11" class="node">
<title>SkillsComponent</title>
<polygon fill="#ffffb3" stroke="#000000" points="1314.7316,-122 1201.2684,-122 1201.2684,-86 1314.7316,-86 1314.7316,-122"/>
<text text-anchor="middle" x="1258" y="-99.8" font-family="Times,serif" font-size="14.00" fill="#000000">SkillsComponent</text>
</g>
<!-- SkillsComponent&#45;&gt;AppModule -->
<g id="edge11" class="edge">
<title>SkillsComponent&#45;&gt;AppModule</title>
<path fill="none" stroke="#000000" d="M1298.8938,-122.1061C1298.8938,-122.1061 1298.8938,-140.991 1298.8938,-140.991"/>
<polygon fill="#000000" stroke="#000000" points="1295.3938,-140.9909 1298.8938,-150.991 1302.3938,-140.991 1295.3938,-140.9909"/>
</g>
<!-- BadgeUrlPipe -->
<g id="node12" class="node">
<title>BadgeUrlPipe</title>
<polygon fill="#ffffb3" stroke="#000000" points="1183.8119,-122 1088.1881,-122 1088.1881,-86 1183.8119,-86 1183.8119,-122"/>
<text text-anchor="middle" x="1136" y="-99.8" font-family="Times,serif" font-size="14.00" fill="#000000">BadgeUrlPipe</text>
</g>
<!-- BadgeUrlPipe&#45;&gt;AppModule -->
<g id="edge12" class="edge">
<title>BadgeUrlPipe&#45;&gt;AppModule</title>
<path fill="none" stroke="#000000" d="M1136,-122.1243C1136,-136.7832 1136,-155 1136,-155 1136,-155 1273.0548,-155 1273.0548,-155"/>
<polygon fill="#000000" stroke="#000000" points="1273.0548,-158.5001 1283.0548,-155 1273.0547,-151.5001 1273.0548,-158.5001"/>
</g>
<!-- MemberDatePipe -->
<g id="node13" class="node">
<title>MemberDatePipe</title>
<polygon fill="#ffffb3" stroke="#000000" points="1070.2395,-122 955.7605,-122 955.7605,-86 1070.2395,-86 1070.2395,-122"/>
<text text-anchor="middle" x="1013" y="-99.8" font-family="Times,serif" font-size="14.00" fill="#000000">MemberDatePipe</text>
</g>
<!-- MemberDatePipe&#45;&gt;AppModule -->
<g id="edge13" class="edge">
<title>MemberDatePipe&#45;&gt;AppModule</title>
<path fill="none" stroke="#000000" d="M1013,-122.0091C1013,-138.0494 1013,-159 1013,-159 1013,-159 1273.246,-159 1273.246,-159"/>
<polygon fill="#000000" stroke="#000000" points="1273.2461,-162.5001 1283.246,-159 1273.246,-155.5001 1273.2461,-162.5001"/>
</g>
<!-- ScorePipe -->
<g id="node14" class="node">
<title>ScorePipe</title>
<polygon fill="#ffffb3" stroke="#000000" points="937.2606,-122 864.7394,-122 864.7394,-86 937.2606,-86 937.2606,-122"/>
<text text-anchor="middle" x="901" y="-99.8" font-family="Times,serif" font-size="14.00" fill="#000000">ScorePipe</text>
</g>
<!-- ScorePipe&#45;&gt;AppModule -->
<g id="edge14" class="edge">
<title>ScorePipe&#45;&gt;AppModule</title>
<path fill="none" stroke="#000000" d="M901,-122.0336C901,-139.0597 901,-162 901,-162 901,-162 1273.1849,-162 1273.1849,-162"/>
<polygon fill="#000000" stroke="#000000" points="1273.1849,-165.5001 1283.1849,-162 1273.1848,-158.5001 1273.1849,-165.5001"/>
</g>
<!-- TrimPipe -->
<g id="node15" class="node">
<title>TrimPipe</title>
<polygon fill="#ffffb3" stroke="#000000" points="846.3823,-122 777.6177,-122 777.6177,-86 846.3823,-86 846.3823,-122"/>
<text text-anchor="middle" x="812" y="-99.8" font-family="Times,serif" font-size="14.00" fill="#000000">TrimPipe</text>
</g>
<!-- TrimPipe&#45;&gt;AppModule -->
<g id="edge15" class="edge">
<title>TrimPipe&#45;&gt;AppModule</title>
<path fill="none" stroke="#000000" d="M812,-122.2667C812,-140.5552 812,-166 812,-166 812,-166 1273.0191,-166 1273.0191,-166"/>
<polygon fill="#000000" stroke="#000000" points="1273.0191,-169.5001 1283.0191,-166 1273.019,-162.5001 1273.0191,-169.5001"/>
</g>
<!-- VideoUrlPipe -->
<g id="node16" class="node">
<title>VideoUrlPipe</title>
<polygon fill="#ffffb3" stroke="#000000" points="759.7577,-122 666.2423,-122 666.2423,-86 759.7577,-86 759.7577,-122"/>
<text text-anchor="middle" x="713" y="-99.8" font-family="Times,serif" font-size="14.00" fill="#000000">VideoUrlPipe</text>
</g>
<!-- VideoUrlPipe&#45;&gt;AppModule -->
<g id="edge16" class="edge">
<title>VideoUrlPipe&#45;&gt;AppModule</title>
<path fill="none" stroke="#000000" d="M713,-122.1061C713,-141.3391 713,-169 713,-169 713,-169 1272.9348,-169 1272.9348,-169"/>
<polygon fill="#000000" stroke="#000000" points="1272.9348,-172.5001 1282.9348,-169 1272.9347,-165.5001 1272.9348,-172.5001"/>
</g>
<!-- AppComponent  -->
<g id="node18" class="node">
<title>AppComponent </title>
<polygon fill="#80b1d3" stroke="#000000" points="1379.439,-252 1270.561,-252 1270.561,-216 1379.439,-216 1379.439,-252"/>
<text text-anchor="middle" x="1325" y="-229.8" font-family="Times,serif" font-size="14.00" fill="#000000">AppComponent </text>
</g>
<!-- AppModule&#45;&gt;AppComponent  -->
<g id="edge17" class="edge">
<title>AppModule&#45;&gt;AppComponent </title>
<path fill="none" stroke="#000000" stroke-dasharray="1,5" d="M1325,-187.1061C1325,-187.1061 1325,-205.991 1325,-205.991"/>
<polygon fill="#000000" stroke="#000000" points="1321.5001,-205.9909 1325,-215.991 1328.5001,-205.991 1321.5001,-205.9909"/>
</g>
<!-- ContactService -->
<g id="node19" class="node">
<title>ContactService</title>
<ellipse fill="#fdb462" stroke="#000000" cx="572" cy="-104" rx="70.0596" ry="18"/>
<text text-anchor="middle" x="572" y="-99.8" font-family="Times,serif" font-size="14.00" fill="#000000">ContactService</text>
</g>
<!-- ContactService&#45;&gt;AppModule -->
<g id="edge18" class="edge">
<title>ContactService&#45;&gt;AppModule</title>
<path fill="none" stroke="#000000" d="M572,-122.1289C572,-142.5724 572,-173 572,-173 572,-173 1273.1728,-173 1273.1728,-173"/>
<polygon fill="#000000" stroke="#000000" points="1273.1728,-176.5001 1283.1728,-173 1273.1728,-169.5001 1273.1728,-176.5001"/>
</g>
<!-- EducationService -->
<g id="node20" class="node">
<title>EducationService</title>
<ellipse fill="#fdb462" stroke="#000000" cx="405" cy="-104" rx="79.2922" ry="18"/>
<text text-anchor="middle" x="405" y="-99.8" font-family="Times,serif" font-size="14.00" fill="#000000">EducationService</text>
</g>
<!-- EducationService&#45;&gt;AppModule -->
<g id="edge19" class="edge">
<title>EducationService&#45;&gt;AppModule</title>
<path fill="none" stroke="#000000" d="M405,-122.0449C405,-143.6623 405,-177 405,-177 405,-177 1273.0789,-177 1273.0789,-177"/>
<polygon fill="#000000" stroke="#000000" points="1273.0789,-180.5001 1283.0789,-177 1273.0788,-173.5001 1273.0789,-180.5001"/>
</g>
<!-- HeaderService -->
<g id="node21" class="node">
<title>HeaderService</title>
<ellipse fill="#fdb462" stroke="#000000" cx="240" cy="-104" rx="67.7336" ry="18"/>
<text text-anchor="middle" x="240" y="-99.8" font-family="Times,serif" font-size="14.00" fill="#000000">HeaderService</text>
</g>
<!-- HeaderService&#45;&gt;AppModule -->
<g id="edge20" class="edge">
<title>HeaderService&#45;&gt;AppModule</title>
<path fill="none" stroke="#000000" d="M240,-122.0109C240,-144.4852 240,-180 240,-180 240,-180 1273.1315,-180 1273.1315,-180"/>
<polygon fill="#000000" stroke="#000000" points="1273.1316,-183.5001 1283.1315,-180 1273.1315,-176.5001 1273.1316,-183.5001"/>
</g>
<!-- TravelService -->
<g id="node22" class="node">
<title>TravelService</title>
<ellipse fill="#fdb462" stroke="#000000" cx="89" cy="-104" rx="65.3839" ry="18"/>
<text text-anchor="middle" x="89" y="-99.8" font-family="Times,serif" font-size="14.00" fill="#000000">TravelService</text>
</g>
<!-- TravelService&#45;&gt;AppModule -->
<g id="edge21" class="edge">
<title>TravelService&#45;&gt;AppModule</title>
<path fill="none" stroke="#000000" d="M89,-122.1532C89,-145.7566 89,-184 89,-184 89,-184 1273.1678,-184 1273.1678,-184"/>
<polygon fill="#000000" stroke="#000000" points="1273.1679,-187.5001 1283.1678,-184 1273.1678,-180.5001 1273.1679,-187.5001"/>
</g>
</g>
</svg>
